<?xml version="1.0" encoding="utf-8"?>
<!-- Generator: Adobe Illustrator 26.3.1, SVG Export Plug-In . SVG Version: 6.00 Build 0)  -->
<svg version="1.1" id="Layer_1" xmlns="http://www.w3.org/2000/svg" xmlns:xlink="http://www.w3.org/1999/xlink" x="0px" y="0px"
	 viewBox="0 0 300 300" style="enable-background:new 0 0 300 300;" xml:space="preserve">
<style type="text/css">
	.st0{fill:#2C2540;}
	.st1{fill-rule:evenodd;clip-rule:evenodd;fill:#2C2540;}
	.st2{fill-rule:evenodd;clip-rule:evenodd;fill:#E17C7A;}
</style>
<g transform="matrix(1,0,0,1,-49.393,1.10289)">
	<g transform="matrix(1,0,0,1,-123.404,273.963)">
		<path class="st0" d="M265.3-128.9c-19.1,0-43.2-15.9-59.3-32.8c-1.1-1.1-1-2.9,0.1-3.9c1.1-1.1,2.9-1,3.9,0.1
			c18,18.8,45,35.1,61.9,30.2c1.5-0.4,3,0.4,3.5,1.9c0.4,1.5-0.4,3-1.9,3.5C270.9-129.2,268.2-128.9,265.3-128.9z"/>
	</g>
	<g transform="matrix(-1,0,0,1,1246.46,273.963)">
		<path class="st0" d="M992.4-128.9c2.9,0,5.6-0.4,8.2-1.1c1.5-0.4,2.3-2,1.9-3.5c-0.4-1.5-2-2.3-3.5-1.9c-16.9,5-44-11.4-61.9-30.2
			c-1.1-1.1-2.8-1.1-3.9-0.1c-1.1,1.1-1.1,2.8-0.1,3.9C949.2-144.8,973.3-128.9,992.4-128.9z"/>
	</g>
	<g transform="matrix(1,0,0,1,-120.603,273.963)">
		<path class="st0" d="M216.3-83.3c-1.2,0-2.3-0.8-2.7-2c-0.4-1.5,0.4-3,1.9-3.4c18.3-5.3,36.8-5.9,55-1.8c1.5,0.3,2.4,1.8,2.1,3.3
			c-0.3,1.5-1.8,2.4-3.3,2.1c-17.2-3.9-34.8-3.3-52.2,1.7C216.9-83.3,216.6-83.3,216.3-83.3z"/>
	</g>
	<g transform="matrix(-1,0,0,1,1243.66,273.963)">
		<path class="st0" d="M943.4-83.3c0.3,0,0.5,0,0.8-0.1c17.4-5.1,35-5.6,52.2-1.7c1.5,0.3,3-0.6,3.3-2.1c0.3-1.5-0.6-3-2.1-3.3
			c-18.2-4.1-36.7-3.5-55,1.8c-1.5,0.4-2.3,2-1.9,3.4C941.1-84.1,942.2-83.3,943.4-83.3z"/>
	</g>
	<g transform="matrix(0.46568,0,0,0.46568,503.05,310.563)">
		<path class="st1" d="M-808.6-322.3c0.6-15.6,7-40.6,24.3-41.1c18.2-0.6,22.7,23.6,24.3,43.5c1.7,21-1.6,46.6-20.9,46.8
			C-801.8-273-809.4-301.9-808.6-322.3z"/>
	</g>
	<g transform="matrix(-0.46568,0,0,0.46568,620.01,310.563)">
		<path class="st1" d="M752.7-322.3c0.6-15.6,7-40.6,24.3-41.1c18.2-0.6,22.7,23.6,24.3,43.5c1.7,21-1.6,46.6-20.9,46.8
			C759.4-273,751.8-301.9,752.7-322.3z"/>
	</g>
	<g transform="matrix(0.620352,0,0,0.620352,483.52,287.346)">
		<path class="st1" d="M-650.8-361.8c0,0,23.5-30.4,49.5-35.4c27.9-5.3,70.3,111.9,70.3,111.9s-27-138.3-67.7-133.3
			C-641.3-413.3-651-361-650.8-361.8z"/>
	</g>
	<g transform="matrix(-0.620352,0,0,0.620352,638.89,287.91)">
		<path class="st1" d="M530.7-368.2c0,0,17.6-24.9,43.6-29.9c27.9-5.3,71.7,105.4,71.7,105.4S617.6-424.4,577-419.4
			C534.3-414.2,530.5-367.4,530.7-368.2z"/>
	</g>
	<g transform="matrix(1,0,0,1,442.963,266.2)">
		<path class="st0" d="M-270.2-71.9c-0.3,0-0.6,0-0.9-0.1c-1.5-0.5-2.3-2.1-1.8-3.5c0.8-2.5,8.3-24,21.9-24.1c0,0,0,0,0.1,0
			c13.6,0,20.9,21.6,21.7,24.1c0.5,1.5-0.3,3-1.8,3.5c-1.5,0.5-3-0.3-3.5-1.8c-1.8-5.6-8.3-20.2-16.4-20.2c0,0,0,0,0,0
			c-8.1,0-14.7,14.6-16.6,20.3C-267.9-72.6-269-71.9-270.2-71.9z"/>
	</g>
	<path class="st0" d="M192.6,270.2c-16.1,0-27.2-5.1-34.3-10.2c-10.5-7.5-14.5-16.5-14.6-16.9c-0.6-1.4,0-3,1.4-3.7
		c1.4-0.6,3,0,3.7,1.4c0.6,1.3,14.8,31.9,61.8,21.7c28.1-6.1,33.3-33.7,33.4-34c0.3-1.5,1.7-2.5,3.2-2.2c1.5,0.3,2.5,1.7,2.2,3.2
		c-0.1,0.3-6,31.5-37.7,38.4C204.7,269.5,198.3,270.2,192.6,270.2z"/>
	<path class="st0" d="M254.2,233.6c-9.7,0-16.2-7.6-18.6-12.6c-0.7-1.4-0.1-3,1.3-3.7c1.4-0.7,3-0.1,3.7,1.3
		c0.7,1.4,7.1,13.7,20.4,7.9c1.4-0.6,3,0,3.7,1.4c0.6,1.4,0,3-1.4,3.7C260,233,257,233.6,254.2,233.6z"/>
	<g transform="matrix(0.804656,0,0,0.839058,465.394,281.896)">
		<path class="st2" d="M-503.9-56.7c-1-14.8,2.5-38.2,36.5-40.8c37.4-2.9,49.3,50.8,23.6,65.1C-468.7-18.4-502-28.9-503.9-56.7z"/>
	</g>
	<g transform="matrix(0.804656,0,0,0.839058,520.714,281.896)">
		<path class="st2" d="M-299.7-56.7c-1-14.8,2.5-38.2,36.5-40.8c37.4-2.9,49.3,50.8,23.6,65.1C-264.5-18.4-297.8-28.9-299.7-56.7z"
			/>
	</g>
</g>
</svg>
