<?xml version="1.0" encoding="utf-8"?>
<!-- Generator: Adobe Illustrator 26.3.1, SVG Export Plug-In . SVG Version: 6.00 Build 0)  -->
<svg version="1.1" id="Layer_1" xmlns="http://www.w3.org/2000/svg" xmlns:xlink="http://www.w3.org/1999/xlink" x="0px" y="0px"
	 viewBox="0 0 300 300" style="enable-background:new 0 0 300 300;" xml:space="preserve">
<style type="text/css">
	.st0{fill-rule:evenodd;clip-rule:evenodd;fill:#2C2540;}
	.st1{fill:#2C2540;}
	.st2{fill-rule:evenodd;clip-rule:evenodd;fill:#E17C7A;}
</style>
<g transform="matrix(1,0,0,1,-17.9455,-4.94491)">
	<g transform="matrix(1.17882,0,0,1.17882,93.3367,177.298)">
		<path class="st0" d="M-26.4-16.2C-25.9-30-20.3-51.9-5-52.4c16-0.5,20,20.8,21.4,38.3c1.1,13.7-0.2,29.7-7.9,37
			C0.7,20.3-8.8,20.1-14.6,22C-23.6,13.8-27-3.2-26.4-16.2z"/>
	</g>
	<g transform="matrix(1,0,0,1,-54.1696,9.69412)">
		<path class="st1" d="M168,201.7c-0.4,0-0.8-0.1-1.2-0.3c-26.5-15.1-47.6-0.7-48.5-0.1c-1.1,0.8-2.6,0.5-3.4-0.6
			c-0.8-1.1-0.5-2.6,0.6-3.4c1-0.7,24.4-16.8,53.7-0.1c1.2,0.7,1.6,2.2,0.9,3.3C169.6,201.2,168.8,201.7,168,201.7z"/>
	</g>
	<g transform="matrix(1,0,0,1,109.981,191.739)">
		<path class="st1" d="M-70.1-19.9c-1.3,0-2.4-1.1-2.4-2.4c0-0.7-0.1-16.5,5.1-32.8c7.1-22.3,20.6-34.6,39.1-35.8
			c11.9-0.8,22.1,2.7,30.2,10.3C22.1-61.8,22.6-24,22.6-22.4c0,1.3-1.1,2.4-2.4,2.5c0,0,0,0,0,0c-1.3,0-2.4-1.1-2.4-2.4
			c0-0.4-0.4-37.4-19.2-54.8c-7.1-6.6-16-9.6-26.6-8.9C-67.9-83.6-67.6-23-67.6-22.4C-67.6-21-68.7-19.9-70.1-19.9
			C-70-19.9-70.1-19.9-70.1-19.9z"/>
	</g>
	<g transform="matrix(1,0,0,1,112.116,195.51)">
		<path class="st0" d="M-64.7-96.3c0,0,5-49.3,31.5-53.7c26-4.3,43.6,43.2,43.6,43.2s-8.8-59.9-44.5-55.5
			C-71.7-157.8-64.9-95.6-64.7-96.3z"/>
	</g>
	<g transform="matrix(-1,0,0,1,339.557,202.151)">
		<path class="st0" d="M50.3-93.4c0,0,12.8-19.4,26.6-20.3c11.5-0.7,15,10.3,26.8,18.6c10.7,7.5,24.9,8,24.9,8s-14.2-6.9-21.9-15.6
			c-9.5-10.6-15-24.6-30.7-23.2C56.4-124.3,50.3-93.4,50.3-93.4z"/>
	</g>
	<g transform="matrix(1,0,0,1,108.989,186.103)">
		<path class="st1" d="M41.9,17.2c-0.3,0-0.5,0-0.8-0.1c-1.3-0.4-2-1.8-1.6-3.1c0.7-2.2,7.3-21.1,19.2-21.2c0,0,0,0,0.1,0
			c12,0,19.6,17.3,19.9,18.1c0.5,1.2,0,2.7-1.3,3.2c-1.2,0.5-2.7,0-3.2-1.3C72.5,8.6,66.2-2.3,58.9-2.3c0,0,0,0,0,0
			c-7.2,0-13,12.9-14.6,17.8C43.9,16.6,43,17.2,41.9,17.2z"/>
	</g>
	<g transform="matrix(1,0,0,1,109.981,191.739)">
		<g transform="matrix(1,0,0,1,-2.28758,-1.29754)">
			<path class="st1" d="M64.6,85.3C29.8,85.3,12.8,61,12.1,60c-0.8-1.1-0.5-2.6,0.6-3.4c1.1-0.8,2.6-0.5,3.4,0.6l0,0
				c0.2,0.2,16.7,23.7,49.6,23.2c32.2-0.5,37.5-32.9,37.7-34.2c0.2-1.3,1.5-2.3,2.8-2.1c1.3,0.2,2.3,1.4,2.1,2.8
				c-0.1,0.4-6.1,37.8-42.4,38.4C65.4,85.3,65,85.3,64.6,85.3z"/>
		</g>
		<g transform="matrix(1,0,0,1,-164.151,-182.045)">
			<path class="st1" d="M272.8,228.9c-6,0-11.1-3.2-14.6-9.3c-0.7-1.2-0.3-2.7,0.9-3.3c1.2-0.7,2.7-0.3,3.3,0.9
				c2.4,4.3,7.1,8.8,15.3,5.9c1.3-0.5,2.7,0.2,3.1,1.5c0.5,1.3-0.2,2.7-1.5,3.1C277.2,228.5,274.9,228.9,272.8,228.9z"/>
		</g>
		<g transform="matrix(1,0,0,1,-164.151,-182.045)">
			<path class="st1" d="M167,245.6c-1.2,0-2.2-0.9-2.4-2.1c-0.2-1.3,0.7-2.6,2-2.8c0.3-0.1,7.7-1.4,12.7-10.5c0.7-1.2,2.1-1.6,3.3-1
				c1.2,0.7,1.6,2.1,1,3.3c-6.2,11.3-15.8,12.9-16.2,12.9C167.3,245.6,167.2,245.6,167,245.6z"/>
		</g>
	</g>
	<g transform="matrix(0.959,0,0,1,114.022,189.938)">
		<path class="st2" d="M-85.5,60.2c-0.9-13,2.2-33.6,32.1-35.8c32.9-2.5,43.4,44.6,20.8,57.3C-54.6,93.9-83.9,84.6-85.5,60.2z"/>
	</g>
	<g transform="matrix(0.959,0,0,1,174.08,189.938)">
		<path class="st2" d="M70.6,60.2c-0.9-13,2.2-33.6,32.1-35.8c32.9-2.5,43.4,44.6,20.8,57.3C101.5,93.9,72.2,84.6,70.6,60.2z"/>
	</g>
	<g transform="matrix(1,0,0,1,-54.1696,9.69412)">
		<path class="st0" d="M267.7,164.6c0,0,11.1-30.9,44-27.2c25.7,2.9,30.1,29.1,30.1,29.1s-6.9-12.7-33.4-17.4
			C289.6,145.7,267.7,164.6,267.7,164.6z"/>
	</g>
</g>
</svg>
