<?xml version="1.0" encoding="utf-8"?>
<!-- Generator: Adobe Illustrator 26.3.1, SVG Export Plug-In . SVG Version: 6.00 Build 0)  -->
<svg version="1.1" id="Layer_1" xmlns="http://www.w3.org/2000/svg" xmlns:xlink="http://www.w3.org/1999/xlink" x="0px" y="0px"
	 viewBox="0 0 300 300" style="enable-background:new 0 0 300 300;" xml:space="preserve">
<style type="text/css">
	.st0{fill-rule:evenodd;clip-rule:evenodd;fill:#2C2540;}
	.st1{fill:#2C2540;}
	.st2{clip-path:url(#SVGID_00000108279742599870069590000010634407914749298341_);}
	.st3{fill-rule:evenodd;clip-rule:evenodd;fill:#E17C7A;}
</style>
<g transform="matrix(1,0,0,1,88.7287,271.804)">
	<g transform="matrix(0.611873,0,0,0.611873,37.6997,25.0789)">
		<path class="st0" d="M-124.2-251.5c0.6-14.7,6.6-38.3,22.9-38.8c17.2-0.6,21.4,22.3,22.9,41.1c1.6,19.8-1.5,44-19.7,44.1
			C-117.9-205-125-232.3-124.2-251.5z"/>
	</g>
	<g transform="matrix(-0.611873,0,0,0.611873,195.073,25.0789)">
		<path class="st0" d="M69-251.5c0.6-14.7,6.6-38.3,22.9-38.8c17.2-0.6,21.4,22.3,22.9,41.1c1.6,19.8-1.5,44-19.7,44.1
			C75.4-205,68.2-232.3,69-251.5z"/>
	</g>
	<g transform="matrix(1,0,0,1,2.22761,0)">
		<path class="st1" d="M-72.5-119.4c-1.3,0-2.5-1-2.6-2.3c-0.2-1.4-3.6-35.3,13.6-56.1c7.6-9.2,18.1-14.4,31.1-15.4
			c9.3-0.7,17.8,1.9,24.6,7.7C5.4-176,12.1-158.2,14-132.8c0.1,1.4-1,2.7-2.4,2.8c-1.4,0.1-2.7-1-2.8-2.4c-1.9-24-7.9-40.5-18-49.2
			c-5.8-4.9-12.8-7.1-20.8-6.5c-11.6,0.9-20.8,5.5-27.5,13.5c-15.8,19.1-12.4,51.8-12.4,52.1c0.2,1.4-0.9,2.7-2.3,2.9
			C-72.3-119.4-72.4-119.4-72.5-119.4z"/>
	</g>
	<g transform="matrix(-1,0,0,1,231.636,0)">
		<path class="st1" d="M42.8-119.4c0.1,0,0.2,0,0.3,0c1.4-0.2,2.5-1.5,2.3-2.9c0-0.3-3.4-33.1,12.4-52.2c6.7-8,15.9-12.6,27.5-13.5
			c8-0.6,15,1.6,20.8,6.5c10.1,8.6,16.1,25.2,18,49.2c0.1,1.4,1.4,2.5,2.8,2.4c1.4-0.1,2.5-1.4,2.4-2.8c-2-25.4-8.6-43.2-19.8-52.7
			c-6.8-5.8-15.3-8.5-24.6-7.7c-13.1,1-23.5,6.2-31.1,15.4C36.5-157,40-123.2,40.2-121.8C40.3-120.4,41.5-119.4,42.8-119.4z"/>
	</g>
	<g transform="matrix(1,0,0,1,-490.446,0)">
		<path class="st1" d="M434.5-78c-0.7,0-1.4-0.3-1.9-0.8c-1-1.1-0.9-2.7,0.1-3.7c17.8-16.6,43.9-20.7,66.5-10.4
			c1.3,0.6,1.9,2.2,1.3,3.5c-0.6,1.3-2.2,1.9-3.5,1.3c-20.7-9.4-44.5-5.7-60.7,9.4C435.8-78.2,435.1-78,434.5-78z"/>
	</g>
	<g transform="matrix(-1,0,0,1,724.309,0)">
		<path class="st1" d="M549.7-78c0.8,0,1.6-0.4,2.1-1c10.8-14.4,33.3-25.1,56.9-14.6c1.3,0.6,2.9,0,3.5-1.3c0.6-1.3,0-2.9-1.3-3.5
			c-26.3-11.8-51.2,0.2-63.3,16.2c-0.9,1.2-0.6,2.8,0.5,3.7C548.6-78.1,549.1-78,549.7-78z"/>
	</g>
	<g transform="matrix(0.620352,0,0,0.620352,38.7438,13.0356)">
		<path class="st0" d="M-141.5-383.6c0,0,9.9-24.6,34.5-29.3c26.4-5,46.1,18,46.1,18s-5.2-42.8-43.6-38.1
			C-144.8-428.1-141.7-382.9-141.5-383.6z"/>
	</g>
	<g transform="matrix(-0.620352,0,0,0.620352,196.291,13.0356)">
		<path class="st0" d="M39.1-383.6c0,0,9.9-24.6,34.5-29.3c26.4-5,46.1,18,46.1,18S114.4-437.7,76-433
			C35.8-428.1,38.9-382.9,39.1-383.6z"/>
	</g>
	<g transform="matrix(1,0,0,1,-0.992592,-5.63609)">
		<path class="st1" d="M38.9-77.6c-0.3,0-0.5,0-0.8-0.1c-1.4-0.5-2.1-1.9-1.7-3.3c0.8-2.3,7.8-22.7,20.6-22.7c0,0,0,0,0.1,0
			c12.8,0,19.8,20.4,20.5,22.7c0.4,1.4-0.3,2.9-1.7,3.3c-1.4,0.5-2.9-0.3-3.3-1.7c-1.7-5.3-7.9-19.1-15.5-19.1c0,0,0,0,0,0
			c-7.7,0-13.9,13.8-15.7,19.1C41-78.3,40-77.6,38.9-77.6z"/>
	</g>
	<g transform="matrix(1,0,0,1,-152.533,-272.996)">
		<g>
			<defs>
				<path id="SVGID_1_" d="M163.3,226.9c0,0,48.3,23.1,101.5-3.8c0,0,4.4,4.4,5.9,7.4c-1.8,13.3-7.4,39-12.2,44.6
					c-6.4,7.3-72.6,12.2-85.1,0.9c-6.8-6.1-15.1-35.3-16.4-44.4C159.6,229.2,163.3,226.9,163.3,226.9z"/>
			</defs>
			<use xlink:href="#SVGID_1_"  style="overflow:visible;fill-rule:evenodd;clip-rule:evenodd;fill:#FFFFFF;"/>
			<clipPath id="SVGID_00000123419848598986258190000005760674632725612685_">
				<use xlink:href="#SVGID_1_"  style="overflow:visible;"/>
			</clipPath>
			<g style="clip-path:url(#SVGID_00000123419848598986258190000005760674632725612685_);">
				<path class="st1" d="M214.4,261.5c-28.4,0-53.2-5.9-54.8-6.3c-1.4-0.3-2.3-1.8-1.9-3.2c0.3-1.4,1.8-2.3,3.2-1.9
					c0.7,0.2,65.7,15.6,105.1-3.5c1.3-0.6,2.9-0.1,3.5,1.2c0.6,1.3,0.1,2.9-1.2,3.5C252.1,259.1,232.5,261.5,214.4,261.5z"/>
			</g>
		</g>
		<path class="st1" d="M209.8,285.2c-16.3,0-32.2-1.9-38.3-7.3c-7.8-7-16-37.6-17.2-46c-0.1-0.9,0.2-1.8,0.9-2.3
			c2.7-2.4,6.5-4.8,6.6-4.9c0.8-0.5,1.7-0.5,2.5-0.2l0,0c0.5,0.2,47.8,22.2,99.2-3.8c1-0.5,2.2-0.3,3.1,0.5c0.5,0.5,4.7,4.8,6.3,8.1
			c0.2,0.5,0.3,1,0.3,1.5c-1.3,9.9-6.9,39.1-12.9,45.9c-5.1,5.8-31.6,7.7-36.8,8C219.1,285,214.4,285.2,209.8,285.2z M159.8,232.6
			c1.8,10.3,9.6,36.3,15.3,41.4c5.3,4.8,24.7,7,48.2,5.5c20-1.2,31.6-4.5,33.2-6.3c4-4.6,9.5-28.1,11.5-42.3
			c-0.9-1.5-2.5-3.4-3.7-4.7c-27.4,13.4-53.4,13.6-70.5,11.4c-15.5-2-26.5-6.2-30.2-7.8C162.5,230.5,161.1,231.5,159.8,232.6z"/>
	</g>
	<g transform="matrix(1,0,0,1,-152.533,-272.996)">
		<path class="st1" d="M276.7,245.4c-1.1,0-2.1-0.7-2.5-1.7c-7.5-20.4-20-25.1-20.1-25.1c-1.4-0.5-2.1-2-1.6-3.3
			c0.5-1.4,2-2.1,3.3-1.6c0.6,0.2,14.9,5.3,23.3,28.2c0.5,1.4-0.2,2.9-1.6,3.4C277.3,245.4,277,245.4,276.7,245.4z"/>
	</g>
	<g transform="matrix(1,0,0,1,-152.533,-272.996)">
		<path class="st1" d="M150.9,241.9c-0.3,0-0.7-0.1-1-0.2c-1.3-0.6-2-2.1-1.4-3.4c0.2-0.5,5.5-13.1,26.4-19.1
			c1.4-0.4,2.8,0.4,3.3,1.8c0.4,1.4-0.4,2.8-1.8,3.3c-18.2,5.3-22.8,15.7-23,16.1C152.9,241.3,151.9,241.9,150.9,241.9z"/>
	</g>
	<g transform="matrix(0.804656,0,0,0.839058,17.6134,11.9449)">
		<path class="st3" d="M-124.9-59.9c-1-14,2.3-36,34.4-38.5c35.3-2.7,46.6,47.9,22.3,61.5C-91.8-23.8-123.2-33.7-124.9-59.9z"/>
	</g>
	<g transform="matrix(0.804656,0,0,0.839058,79.6496,11.9449)">
		<path class="st3" d="M86.9-59.9c-1-14,2.3-36,34.4-38.5c35.3-2.7,46.6,47.9,22.3,61.5C120-23.8,88.6-33.7,86.9-59.9z"/>
	</g>
</g>
</svg>
