<?xml version="1.0" encoding="utf-8"?>
<!-- Generator: Adobe Illustrator 26.3.1, SVG Export Plug-In . SVG Version: 6.00 Build 0)  -->
<svg version="1.1" id="Layer_1" xmlns="http://www.w3.org/2000/svg" xmlns:xlink="http://www.w3.org/1999/xlink" x="0px" y="0px"
	 viewBox="0 0 300 300" style="enable-background:new 0 0 300 300;" xml:space="preserve">
<style type="text/css">
	.st0{fill-rule:evenodd;clip-rule:evenodd;fill:#2C2540;}
	.st1{fill:#2C2540;}
	.st2{fill-rule:evenodd;clip-rule:evenodd;fill:#E17C7A;}
</style>
<g transform="matrix(1,0,0,1,299.536,1.8875)">
	<g transform="matrix(1,0,0,1,-0.97629,0)">
		<path class="st0" d="M-262.8,152.8c0.6-15.6,7-40.6,24.3-41.1c18.2-0.6,22.7,23.6,24.3,43.5c1.7,21-1.6,46.6-20.9,46.8
			C-256.1,202.1-263.7,173.2-262.8,152.8z"/>
	</g>
	<g transform="matrix(-0.998068,0.0621283,0.0621283,0.998068,221.009,-5.64877)">
		<path class="st0" d="M285.3,139.5c0.6-15.6,7-40.6,24.3-41.1c18.2-0.6,22.7,23.6,24.3,43.5c1.7,21-1.6,46.6-20.9,46.8
			C292,188.8,284.5,159.9,285.3,139.5z"/>
	</g>
	<path class="st1" d="M-289.6,159.6c-1.1,0-2.2-0.7-2.6-1.9c-0.5-1.4,0.2-3,1.6-3.5c0.5-0.2,9.6-4.7,37.7-40.4
		c11.6-14.8,27.9-23.5,41.4-22.2c7.3,0.7,13,4.4,16,10.3c0.7,1.4,0.2,3-1.2,3.7c-1.4,0.7-3,0.2-3.7-1.2c-2.8-5.4-7.8-7-11.6-7.3
		c-9.6-0.9-24.5,4.9-36.5,20.1c-29.6,37.7-39.2,41.8-40.1,42.2C-289,159.5-289.3,159.6-289.6,159.6z"/>
	<g transform="matrix(-1,0,0,1,230.527,0)">
		<path class="st1" d="M243.7,164.3c1.9-0.4,12.3-4.5,35.4-45.9c7.7-13.9,17.7-21.8,28.2-22.3c7.1-0.3,13.8,2.9,17.7,8.7
			c0.9,1.3,2.6,1.6,3.9,0.7c1.3-0.9,1.6-2.6,0.7-3.9c-5.1-7.4-13.5-11.5-22.6-11.1c-7.2,0.3-21.1,4.1-32.8,25.1
			c-21.9,39.4-31.8,43.2-31.9,43.2c0.1,0,0.2,0,0.2,0L243.7,164.3z"/>
	</g>
	<g transform="matrix(0.60066,-0.799505,-0.799505,-0.60066,67.3807,141.841)">
		<path class="st0" d="M-169.7,322.7c0,0,16.4-21.6,42-33.9c21.6-10.4,45-6.6,45-6.6s-16.5-20-49.9-6.1
			C-174.1,293.3-169.3,329.1-169.7,322.7z"/>
	</g>
	<g transform="matrix(-0.518602,-0.855016,0.855016,-0.518602,153.001,143.776)">
		<path class="st0" d="M129.8-107.9c0,0,16.4-21.6,42-33.9c21.6-10.4,45-6.6,45-6.6s-16.5-20-49.9-6.1
			C125.4-137.3,130.3-101.4,129.8-107.9z"/>
	</g>
	<g transform="matrix(1,0,0,1,-0.992592,-5.63609)">
		<path class="st1" d="M-162.4,201c-0.3,0-0.6,0-0.9-0.1c-1.5-0.5-2.2-2-1.8-3.5c0.8-2.5,8.3-24,21.9-24.1c0,0,0,0,0.1,0
			c13.6,0,22.2,19.7,22.6,20.5c0.6,1.4,0,3-1.5,3.7c-1.4,0.6-3,0-3.7-1.5c-2.1-4.8-9.2-17.2-17.5-17.2c0,0,0,0,0,0
			c-8.1,0-14.7,14.6-16.6,20.3C-160.2,200.3-161.3,201-162.4,201z"/>
	</g>
	<g transform="matrix(1,0,0,-1,-3.36244,186.691)">
		<path class="st1" d="M-178.5-74.1c-0.5,0-1.1,0.1-1.5,0.5c-1.3,0.8-1.6,2.6-0.8,3.9c0.9,1.4,22.7,33.9,48.5,36.3
			c8.5,0.8,15.3-1.3,20.2-6.1c9.2-9,8.1-24.3,8-25c-0.1-1.5-1.5-2.7-3-2.6c-1.5,0.1-2.7,1.5-2.6,3c0,0.1,0.9,13.4-6.4,20.6
			c-3.7,3.6-9,5.2-15.8,4.5c-23.1-2.1-44.2-33.5-44.4-33.8C-176.7-73.7-177.6-74.1-178.5-74.1z"/>
	</g>
	<g transform="matrix(0.529443,0,0,0.552078,41.8895,35.8282)">
		<path class="st2" d="M-605,352.2c-1-14.8,2.5-38.2,36.5-40.8c37.4-2.9,49.3,50.8,23.6,65.1C-569.8,390.4-603.1,380-605,352.2z"/>
	</g>
	<g transform="matrix(0.529443,0,0,0.552078,97.1439,35.8282)">
		<path class="st2" d="M-294.9,352.2c-1-14.8,2.5-38.2,36.5-40.8c37.4-2.9,49.3,50.8,23.6,65.1C-259.8,390.4-293,380-294.9,352.2z"
			/>
	</g>
</g>
</svg>
