<?xml version="1.0" encoding="utf-8"?>
<!-- Generator: Adobe Illustrator 26.3.1, SVG Export Plug-In . SVG Version: 6.00 Build 0)  -->
<svg version="1.1" id="Layer_1" xmlns="http://www.w3.org/2000/svg" xmlns:xlink="http://www.w3.org/1999/xlink" x="0px" y="0px"
	 viewBox="0 0 300 300" style="enable-background:new 0 0 300 300;" xml:space="preserve">
<style type="text/css">
	.st0{fill:#2C2540;}
	.st1{fill-rule:evenodd;clip-rule:evenodd;fill:#2C2540;}
	.st2{fill-rule:evenodd;clip-rule:evenodd;fill:#E17C7A;}
</style>
<g transform="matrix(1,0,0,1,24.4515,4.73908)">
	<path class="st0" d="M23.4,122.5c-7.5,0-15.2-0.5-22.9-1.6c-1.5-0.2-2.6-1.6-2.4-3.1c0.2-1.5,1.6-2.6,3.1-2.4
		c21.7,3.1,41.6,1.8,60.7-3.8c1.5-0.4,3,0.4,3.5,1.9c0.4,1.5-0.4,3-1.9,3.5C50.8,120.6,37.4,122.5,23.4,122.5z"/>
	<g transform="matrix(-1,0,0,1,1373.24,0)">
		<path class="st0" d="M1154.7,122.5c13.9,0,27.4-1.9,40.1-5.7c1.5-0.4,2.3-2,1.9-3.5c-0.4-1.5-2-2.3-3.5-1.9
			c-19.2,5.6-39,6.9-60.7,3.8c-1.5-0.2-2.9,0.8-3.1,2.4c-0.2,1.5,0.8,2.9,2.4,3.1C1139.5,121.9,1147.2,122.5,1154.7,122.5z"/>
	</g>
	<path class="st0" d="M0.9,191.7c-1.2,0-2.3-0.8-2.7-2c-0.4-1.5,0.4-3,1.9-3.4c18.3-5.3,36.8-5.9,55-1.8c1.5,0.3,2.4,1.8,2.1,3.3
		c-0.3,1.5-1.8,2.4-3.3,2.1c-17.2-3.9-34.8-3.3-52.2,1.7C1.4,191.7,1.2,191.7,0.9,191.7z"/>
	<g transform="matrix(-1,0,0,1,1373.24,0)">
		<path class="st0" d="M1132.1,191.7c0.3,0,0.5,0,0.8-0.1c17.4-5.1,35-5.7,52.2-1.7c1.5,0.3,3-0.6,3.3-2.1c0.3-1.5-0.6-3-2.1-3.3
			c-18.2-4.1-36.7-3.5-55,1.8c-1.5,0.4-2.3,2-1.9,3.4C1129.8,190.9,1130.9,191.7,1132.1,191.7z"/>
	</g>
	<g transform="matrix(0.417626,-0.908619,-0.908619,-0.417626,660.888,141.197)">
		<path class="st1" d="M-233.7,635c0,0,16.4-21.6,42-33.9c21.6-10.4,45-6.6,45-6.6s-16.5-20-49.9-6.1
			C-238,605.6-233.2,641.5-233.7,635z"/>
	</g>
	<g transform="matrix(-0.503054,-0.864255,0.864255,-0.503054,723.456,140.402)">
		<path class="st1" d="M279.7-367.9c0,0,16.4-21.6,42-33.9c21.6-10.4,45-6.6,45-6.6s-16.5-20-49.9-6.1
			C275.4-397.2,280.2-361.4,279.7-367.9z"/>
	</g>
	<g transform="matrix(1,0,0,1,571.144,-5.63609)">
		<path class="st0" d="M-463.1,209.5c-0.3,0-0.6,0-0.9-0.1c-1.5-0.5-2.3-2.1-1.8-3.5c0.8-2.5,8.3-24,21.9-24.1c0,0,0,0,0.1,0
			c13.6,0,22.2,19.7,22.6,20.5c0.6,1.4,0,3-1.5,3.7c-1.4,0.6-3,0-3.7-1.5c-2.1-4.8-9.2-17.2-17.5-17.2c0,0,0,0,0,0
			c-8.1,0-14.7,14.6-16.6,20.3C-460.8,208.7-461.9,209.5-463.1,209.5z"/>
	</g>
	<g transform="matrix(1,0,0,-1,568.774,186.691)">
		<path class="st0" d="M-478.4-77.6c-0.6,0-1.3,0.2-1.8,0.7c-1.2,1-1.3,2.7-0.3,3.9c0.9,1,21.9,25.4,47.5,27.7
			c9.6,0.9,17.5-1.1,23.4-6c8.4-7,9.4-17.2,9.4-17.6c0.1-1.5-1-2.9-2.5-3c-1.5-0.1-2.9,1-3,2.5c-0.1,0.8-2.3,20.8-26.7,18.6
			c-23.3-2.1-43.5-25.6-43.7-25.8C-476.9-77.3-477.7-77.6-478.4-77.6z"/>
	</g>
	<g transform="matrix(1,0,0,1,166.712,0)">
		<path class="st0" d="M-58.7,82.6c-1.5,0-2.7-1.2-2.8-2.7C-62.2,59.3-70,49-70,48.9c-0.9-1.2-0.7-3,0.5-3.9
			c1.2-0.9,2.9-0.7,3.9,0.5c0.4,0.5,8.9,11.7,9.8,34.3c0.1,1.5-1.1,2.8-2.7,2.9C-58.6,82.6-58.6,82.6-58.7,82.6z"/>
	</g>
	<g transform="matrix(1,0,0,1,166.712,0)">
		<path class="st0" d="M-28.6,85.7c-1.3,0-2.5-0.9-2.7-2.2c-4-19.8,9.2-37.3,9.8-38c0.9-1.2,2.7-1.4,3.9-0.5
			c1.2,0.9,1.4,2.7,0.5,3.9c-0.2,0.3-12.2,16.3-8.7,33.5c0.3,1.5-0.7,3-2.2,3.3C-28.2,85.7-28.4,85.7-28.6,85.7z"/>
	</g>
	<g transform="matrix(0.67425,0,0,0.703077,604.451,19.6556)">
		<path class="st2" d="M-898.1,300.7c-1-14.8,2.5-38.2,36.5-40.8c37.4-2.9,49.3,50.8,23.6,65.1C-863,338.9-896.2,328.5-898.1,300.7z
			"/>
	</g>
	<g transform="matrix(0.67425,0,0,0.703077,655.168,19.6556)">
		<path class="st2" d="M-674.7,300.7c-1-14.8,2.5-38.2,36.5-40.8c37.4-2.9,49.3,50.8,23.6,65.1
			C-639.5,338.9-672.8,328.5-674.7,300.7z"/>
	</g>
	<g transform="matrix(0.46568,0,0,0.46568,616.902,36.5996)">
		<path class="st1" d="M-1314.2,268.2c0.6-15.6,7-40.6,24.3-41.1c18.2-0.6,22.7,23.6,24.3,43.5c1.7,21-1.6,46.6-20.9,46.8
			C-1307.5,317.5-1315.1,288.6-1314.2,268.2z"/>
	</g>
	<g transform="matrix(-0.46568,0,0,0.46568,749.543,36.5996)">
		<path class="st1" d="M1158.3,268.2c0.6-15.6,7-40.6,24.3-41.1c18.2-0.6,22.7,23.6,24.3,43.5c1.7,21-1.6,46.6-20.9,46.8
			C1165,317.5,1157.5,288.6,1158.3,268.2z"/>
	</g>
</g>
</svg>
