<?xml version="1.0" encoding="utf-8"?>
<!-- Generator: Adobe Illustrator 26.3.1, SVG Export Plug-In . SVG Version: 6.00 Build 0)  -->
<svg version="1.1" id="Layer_1" xmlns="http://www.w3.org/2000/svg" xmlns:xlink="http://www.w3.org/1999/xlink" x="0px" y="0px"
	 viewBox="0 0 300 300" style="enable-background:new 0 0 300 300;" xml:space="preserve">
<style type="text/css">
	.st0{fill-rule:evenodd;clip-rule:evenodd;fill:#2C2540;}
	.st1{fill:#2C2540;}
	.st2{fill-rule:evenodd;clip-rule:evenodd;fill:#E17C7A;}
</style>
<g transform="matrix(1,0,0,1,-14.8921,92.2285)">
	<g transform="matrix(1,0,0,1,-2.25066,0)">
		<path class="st0" d="M52.6,61.6c0.6-14.3,6.4-37.2,22.3-37.8c16.7-0.6,20.8,21.7,22.3,39.9c1.6,19.3-1.5,42.8-19.2,42.9
			C58.8,106.8,51.8,80.3,52.6,61.6z"/>
	</g>
	<g transform="matrix(1,0,0,1,39.4089,0)">
		<path class="st0" d="M162.8,61.6c0.6-14.3,6.4-37.2,22.3-37.8c16.7-0.6,20.8,21.7,22.3,39.9c1.6,19.3-1.5,42.8-19.2,42.9
			C168.9,106.8,162,80.3,162.8,61.6z"/>
	</g>
	<g transform="matrix(1,0,0,1,46.7698,0)">
		<path class="st1" d="M158.6,67.8c-1.3,0-2.5-1-2.5-2.4c-0.1-1.6-2.3-38.4,15.6-58.9c6.9-7.9,16-12.3,26.8-13
			c15.8-1,28.5,5,37.8,17.9c0.8,1.1,0.6,2.7-0.6,3.6c-1.1,0.8-2.7,0.6-3.6-0.6C224,3.1,212.8-2.2,198.8-1.3
			c-9.5,0.6-17.3,4.4-23.3,11.2c-16.5,18.8-14.4,54.8-14.3,55.2c0.1,1.4-1,2.6-2.4,2.7C158.7,67.8,158.7,67.8,158.6,67.8z"/>
	</g>
	<g transform="matrix(1,0,0,1,5.11024,0)">
		<path class="st1" d="M48.4,67.8c-1.3,0-2.5-1-2.5-2.4C45.8,63.8,43.6,27,61.5,6.6c6.9-7.9,16-12.3,26.8-13
			c15.8-1,28.5,5,37.8,17.9c0.8,1.1,0.6,2.7-0.6,3.6c-1.1,0.8-2.7,0.6-3.6-0.6C113.8,3.1,102.6-2.2,88.7-1.3
			C79.2-0.7,71.3,3.1,65.3,9.9C48.8,28.7,51,64.7,51,65.1c0.1,1.4-1,2.6-2.4,2.7C48.6,67.8,48.5,67.8,48.4,67.8z"/>
	</g>
	<g transform="matrix(1,0,0,1,5.97804,2.33529)">
		<path class="st0" d="M47.5-52.6c0,0,9.7-3.7,36.9,3c30.4,7.5,42,27.1,42,27.1S124.1-56.8,83-63.6C59.2-67.6,47.3-51.9,47.5-52.6z"
			/>
	</g>
	<g transform="matrix(-1,0,0,1,227.486,2.33529)">
		<path class="st0" d="M-53.5-52.6c0,0,9.7-3.7,36.9,3c30.4,7.5,42,27.1,42,27.1S23.1-56.8-18-63.6C-41.8-67.6-53.7-51.9-53.5-52.6z
			"/>
	</g>
	<g transform="matrix(1,0,0,1,-0.992592,-5.63609)">
		<path class="st1" d="M148.1,106.3c-0.3,0-0.5,0-0.8-0.1c-1.3-0.4-2.1-1.9-1.6-3.2c0.7-2.3,7.6-22.1,20.1-22.1c0,0,0,0,0.1,0
			c12.5,0,20.4,18.1,20.7,18.8c0.6,1.3,0,2.8-1.3,3.4c-1.3,0.6-2.8,0-3.4-1.3c-1.9-4.4-8.5-15.8-16.1-15.8c0,0,0,0,0,0
			c-7.5,0-13.5,13.4-15.2,18.6C150.2,105.6,149.2,106.3,148.1,106.3z"/>
	</g>
	<g transform="matrix(1,0,0,-1,-2.28758,191.067)">
		<path class="st1" d="M207.6,24.8c-0.7,0-1.3,0.2-1.8,0.7c-5.1,5-10.8,8.7-27.9,14.6c-32.5,11.2-44.6,0.6-44.7,0.5
			c-1-0.9-2.7-0.9-3.6,0.2c-0.9,1-0.9,2.7,0.2,3.6c0.6,0.5,14.5,12.7,49.8,0.5c18-6.2,24.2-10.2,29.8-15.8c1-1,1-2.6,0-3.6
			C208.9,25.1,208.2,24.8,207.6,24.8z"/>
	</g>
	<g transform="matrix(0.959,0,0,1,4.0405,-1.80075)">
		<path class="st2" d="M19.8,151.3c-0.9-13.6,2.3-35,33.5-37.4c34.4-2.6,45.3,46.6,21.7,59.8C52.1,186.4,21.5,176.8,19.8,151.3z"/>
	</g>
	<g transform="matrix(0.959,0,0,1,64.0991,-1.80075)">
		<path class="st2" d="M185.4,151.3c-0.9-13.6,2.3-35,33.5-37.4c34.4-2.6,45.3,46.6,21.7,59.8C217.7,186.4,187.2,176.8,185.4,151.3z
			"/>
	</g>
</g>
</svg>
