<?xml version="1.0" encoding="utf-8"?>
<!-- Generator: Adobe Illustrator 26.3.1, SVG Export Plug-In . SVG Version: 6.00 Build 0)  -->
<svg version="1.1" id="Layer_1" xmlns="http://www.w3.org/2000/svg" xmlns:xlink="http://www.w3.org/1999/xlink" x="0px" y="0px"
	 viewBox="0 0 300 300" style="enable-background:new 0 0 300 300;" xml:space="preserve">
<style type="text/css">
	.st0{fill-rule:evenodd;clip-rule:evenodd;fill:#2C2540;}
	.st1{fill:#2C2540;}
	.st2{fill-rule:evenodd;clip-rule:evenodd;fill:#E17C7A;}
</style>
<g transform="matrix(1,0,0,1,-14.8921,2.53057)">
	<path class="st0" d="M54.9,155.7c0.6-14.8,6.6-38.5,23.1-39c17.3-0.6,21.5,22.4,23.1,41.3c1.6,19.9-1.5,44.2-19.9,44.4
		C61.3,202.4,54.1,175,54.9,155.7z"/>
	<g transform="matrix(-1,0,0,1,229.576,0)">
		<path class="st0" d="M-35.4,155.7c0.6-14.8,6.6-38.5,23.1-39C4.9,116,9.2,139,10.7,157.9c1.6,19.9-1.5,44.2-19.9,44.4
			C-29.1,202.4-36.2,175-35.4,155.7z"/>
	</g>
	<path class="st1" d="M26.8,162.1c-1.4,0-2.6-1.2-2.6-2.6c0-0.7-0.1-17.7,5.5-35.4c7.6-24,22.2-37.4,42.2-38.6
		c12.9-0.8,23.8,2.9,32.6,11.1c21.9,20.4,22.3,61.2,22.3,63c0,1.5-1.2,2.6-2.6,2.7c0,0,0,0,0,0c-1.4,0-2.6-1.2-2.6-2.6
		c0-0.4-0.5-40.3-20.7-59.2c-7.6-7.1-17.3-10.4-28.7-9.7c-43,2.7-42.7,68.1-42.7,68.8C29.4,160.9,28.3,162.1,26.8,162.1
		C26.8,162.1,26.8,162.1,26.8,162.1z"/>
	<g transform="matrix(-1,0,0,1,229.576,0)">
		<path class="st1" d="M33.7,162.1C33.7,162.1,33.7,162.1,33.7,162.1c1.5,0,2.6-1.2,2.6-2.7c0-1.7-0.5-42.6-22.3-63
			C5.2,88.3-5.7,84.6-18.6,85.4c-20,1.3-34.5,14.6-42.2,38.6c-5.6,17.7-5.5,34.7-5.5,35.4c0,1.5,1.2,2.6,2.7,2.6
			c1.5,0,2.6-1.2,2.6-2.7c0-0.7-0.2-66,42.7-68.8c11.4-0.7,21,2.5,28.7,9.7c20.2,18.8,20.7,58.8,20.7,59.2
			C31.1,160.9,32.3,162.1,33.7,162.1z"/>
	</g>
	<path class="st0" d="M26.8,69.5c0,0,9.6-31.6,38.2-36.4c28.1-4.6,42.8,25,42.8,25s-5.3-43.1-43.8-38.3
		C23.4,24.8,26.5,70.3,26.8,69.5z"/>
	<g transform="matrix(-1,0,0,1,229.576,0)">
		<path class="st0" d="M-63.6,69.5c0,0,9.6-31.6,38.2-36.4c28.1-4.6,42.8,25,42.8,25s-5.3-43.1-43.8-38.3
			C-67,24.8-63.8,70.3-63.6,69.5z"/>
	</g>
	<g transform="matrix(1,0,0,1,-0.992592,-5.63609)">
		<path class="st1" d="M147.5,201.7c-0.3,0-0.6,0-0.8-0.1c-1.4-0.5-2.1-1.9-1.7-3.3c0.8-2.3,7.9-22.8,20.7-22.9c0,0,0,0,0.1,0
			c12.9,0,21.1,18.7,21.4,19.5c0.6,1.3,0,2.9-1.4,3.5c-1.3,0.6-2.9,0-3.5-1.4c-2-4.5-8.8-16.3-16.6-16.3c0,0,0,0,0,0
			c-7.7,0-14,13.9-15.8,19.2C149.7,201,148.6,201.7,147.5,201.7z"/>
	</g>
	<g transform="matrix(1,0,0,1,-2.28758,-1.29754)">
		<path class="st1" d="M168.6,275.3c-38.6,0-46.4-29.5-46.4-29.8c-0.4-1.4,0.5-2.8,1.9-3.2c1.4-0.3,2.8,0.5,3.2,1.9l0,0
			c0.3,1.1,7.1,26.1,41.9,25.8c40.1-0.3,45.7-28.4,45.9-29.6c0.3-1.4,1.6-2.4,3.1-2.1c1.4,0.3,2.4,1.6,2.1,3.1
			c-0.1,0.3-6.4,33.6-51.1,33.9C169,275.3,168.8,275.3,168.6,275.3z"/>
	</g>
	<g transform="matrix(0.959,0,0,1,4.0405,-1.80075)">
		<path class="st2" d="M14.8,248.3c-1-14.1,2.3-36.2,34.6-38.7c35.5-2.7,46.8,48.2,22.4,61.8C48.2,284.7,16.6,274.7,14.8,248.3z"/>
	</g>
	<g transform="matrix(0.959,0,0,1,64.0991,-1.80075)">
		<path class="st2" d="M188.1,248.3c-1-14.1,2.3-36.2,34.6-38.7c35.5-2.7,46.8,48.2,22.4,61.8C221.5,284.7,189.9,274.7,188.1,248.3z
			"/>
	</g>
</g>
</svg>
