<?xml version="1.0" encoding="utf-8"?>
<!-- Generator: Adobe Illustrator 26.3.1, SVG Export Plug-In . SVG Version: 6.00 Build 0)  -->
<svg version="1.1" id="Layer_1" xmlns="http://www.w3.org/2000/svg" xmlns:xlink="http://www.w3.org/1999/xlink" x="0px" y="0px"
	 viewBox="0 0 300 300" style="enable-background:new 0 0 300 300;" xml:space="preserve">
<style type="text/css">
	.st0{fill-rule:evenodd;clip-rule:evenodd;fill:#2C2540;}
	.st1{fill:#2C2540;}
	.st2{fill-rule:evenodd;clip-rule:evenodd;fill:#E17C7A;}
</style>
<g transform="matrix(1,0,0,1,192.367,-0.88671)">
	<g transform="matrix(1,0,0,1,2.22761,0)">
		<path class="st0" d="M-155.6,146.2c0.6-14.6,6.6-38,22.8-38.6c17.1-0.6,21.3,22.1,22.8,40.8c1.6,19.7-1.5,43.7-19.6,43.9
			C-149.3,192.5-156.4,165.4-155.6,146.2z"/>
	</g>
	<g transform="matrix(-1,0,0,1,231.135,0)">
		<path class="st0" d="M179.4,146.2c0.6-14.6,6.6-38,22.8-38.6c17.1-0.6,21.3,22.1,22.8,40.8c1.6,19.7-1.5,43.7-19.6,43.9
			C185.7,192.5,178.6,165.4,179.4,146.2z"/>
	</g>
	<g transform="matrix(1,0,0,1,2.22761,0)">
		<path class="st1" d="M-182.9,146.1c-0.1,0-0.2,0-0.2,0c-1.4-0.1-2.5-1.4-2.4-2.8c1.7-19.7,9.8-65.5,47.7-66.8
			c14-0.5,18,12.5,21.6,23.9c1.6,5.1,3.1,9.9,5.4,13.4c0.8,1.2,0.4,2.8-0.8,3.6c-1.2,0.8-2.8,0.4-3.6-0.8c-2.6-4.1-4.3-9.5-5.9-14.7
			c-3.9-12.5-7.2-20.6-16.5-20.3c-33.7,1.1-41,43.8-42.6,62.1C-180.5,145.1-181.6,146.1-182.9,146.1z"/>
	</g>
	<g transform="matrix(-1,0,0,1,231.135,0)">
		<path class="st1" d="M153.3,146.1c1.4,0,2.5-1.1,2.6-2.5c1.4-23.7,8.7-52.3,35.9-54c18.1-1.2,26.5,13.4,34,26.3
			c0.7,1.2,2.3,1.7,3.6,1c1.2-0.7,1.7-2.3,1-3.6c-7.8-13.5-17.5-30.3-38.8-28.9c-24.2,1.5-38.7,22.5-40.8,58.9
			c-0.1,1.4,1,2.7,2.5,2.8C153.2,146.1,153.3,146.1,153.3,146.1z"/>
	</g>
	<g transform="matrix(0.949762,0.312975,-0.312975,0.949762,18.9261,-26.266)">
		<path class="st0" d="M-169.1,139.6c0,0,13.9-19.5,24.5-15.7c13.8,5,24.9,9.8,36.9,12.8c18.9,4.8,31.1-0.6,31.1-0.6
			s-11.2-1.7-28.2-8.6c-17-6.9-25-16.3-41.9-18.4C-163.6,106.9-169.3,140.4-169.1,139.6z"/>
	</g>
	<g transform="matrix(-0.949762,0.312975,0.312975,0.949762,212.399,-26.266)">
		<path class="st0" d="M154.4,33c0,0,13.9-19.5,24.5-15.7c13.8,5,24.9,9.8,36.9,12.8c18.9,4.8,31.1-0.6,31.1-0.6s-11.2-1.7-28.2-8.6
			c-17-6.9-25-16.3-41.9-18.4C159.8,0.4,154.2,33.8,154.4,33z"/>
	</g>
	<g transform="matrix(1,0,0,1,-0.992592,-5.63609)">
		<path class="st1" d="M-34.2,191.8c-1.1,0-2.1-0.7-2.5-1.8c-1.7-5.3-7.8-19-15.4-19c0,0,0,0,0,0c-7.6,0-13.8,13.7-15.6,19
			c-0.5,1.4-1.9,2.1-3.3,1.7c-1.4-0.5-2.1-1.9-1.7-3.3c0.8-2.3,7.8-22.5,20.5-22.6c0,0,0,0,0.1,0c12.7,0,19.6,20.3,20.4,22.6
			c0.4,1.4-0.3,2.8-1.7,3.3C-33.6,191.8-33.9,191.8-34.2,191.8z"/>
	</g>
	<g transform="matrix(1,0,0,1,-217.867,0)">
		<path class="st1" d="M132.1,240.6c-1,0-1.9-0.5-2.3-1.4c-0.6-1.3-0.1-2.9,1.2-3.5c1.7-0.9,43.1-21.3,71.1-15.9
			c1.4,0.3,2.3,1.6,2.1,3.1c-0.3,1.4-1.6,2.3-3.1,2.1c-26.2-5.1-67.3,15.3-67.7,15.5C132.9,240.5,132.5,240.6,132.1,240.6z"/>
	</g>
	<g transform="matrix(1,0,0,1,-217.867,0)">
		<path class="st1" d="M158.1,245c-1,0-1.9-0.6-2.4-1.5c-0.6-1.3,0-2.9,1.3-3.5c0.9-0.4,21.7-9.9,33.1-4.4c1.3,0.6,1.8,2.2,1.2,3.5
			c-0.6,1.3-2.2,1.8-3.5,1.2c-7.7-3.7-23.3,1.9-28.7,4.4C158.8,244.9,158.5,245,158.1,245z"/>
	</g>
	<g transform="matrix(0.959,0,0,1,8.23691,0.0277072)">
		<path class="st2" d="M-198.7,242.9c-0.9-13.9,2.3-35.8,34.2-38.2c35.1-2.7,46.3,47.6,22.1,61.1
			C-165.8,278.8-197,268.9-198.7,242.9z"/>
	</g>
	<g transform="matrix(0.959,0,0,1,66.3929,0.0277072)">
		<path class="st2" d="M-33.5,242.9c-0.9-13.9,2.3-35.8,34.2-38.2c35.1-2.7,46.3,47.6,22.1,61.1C-0.5,278.8-31.7,268.9-33.5,242.9z"
			/>
	</g>
</g>
</svg>
