<?xml version="1.0" encoding="utf-8"?>
<!-- Generator: Adobe Illustrator 26.3.1, SVG Export Plug-In . SVG Version: 6.00 Build 0)  -->
<svg version="1.1" id="Layer_1" xmlns="http://www.w3.org/2000/svg" xmlns:xlink="http://www.w3.org/1999/xlink" x="0px" y="0px"
	 viewBox="0 0 300 300" style="enable-background:new 0 0 300 300;" xml:space="preserve">
<style type="text/css">
	.st0{fill-rule:evenodd;clip-rule:evenodd;fill:#2C2540;}
	.st1{fill:#2C2540;}
	.st2{clip-path:url(#SVGID_00000120530694086598668920000010869605084360138160_);}
	.st3{fill-rule:evenodd;clip-rule:evenodd;fill:#E17C7A;}
</style>
<g transform="matrix(1,0,0,1,87.2037,0)">
	<g transform="matrix(1,0,0,1,2.22761,0)">
		<path class="st0" d="M-36.8,147.7c0.5-12.8,5.7-33.2,19.9-33.6c14.9-0.5,18.5,19.3,19.9,35.6c1.4,17.2-1.3,38.1-17.1,38.2
			C-31.3,188-37.5,164.4-36.8,147.7z"/>
	</g>
	<g transform="matrix(-1,0,0,1,231.135,0)">
		<path class="st0" d="M86.9,147.7c0.5-12.8,5.7-33.2,19.9-33.6c14.9-0.5,18.5,19.3,19.9,35.6c1.4,17.2-1.3,38.1-17.1,38.2
			C92.4,188,86.2,164.4,86.9,147.7z"/>
	</g>
	<g transform="matrix(1,0,0,1,2.22761,0)">
		<path class="st1" d="M-61.1,164.4c-1.2,0-2.2-0.9-2.3-2.1c0-0.7-0.9-17.9,3.5-35.7c6-24.3,19-37.8,37.5-39.3
			c14.9-1.2,26.8,5,35.3,18.2c0.7,1.1,0.4,2.5-0.7,3.1c-1.1,0.7-2.5,0.4-3.1-0.7C1.6,96.1-8.8,90.7-22,91.7
			C-62,94.9-58.8,161.3-58.8,162c0.1,1.3-0.9,2.3-2.1,2.4C-61,164.4-61,164.4-61.1,164.4z"/>
	</g>
	<g transform="matrix(-1,0,0,1,231.135,0)">
		<path class="st1" d="M64.4,164.4C64.4,164.4,64.4,164.4,64.4,164.4c1.3,0,2.3-1.1,2.3-2.3c0-0.7-1.9-67.9,35.1-70.3
			c14-0.9,24.8,5.2,32.3,18.1c0.6,1.1,2,1.5,3.1,0.8c1.1-0.6,1.5-2,0.8-3.1c-8.4-14.5-20.6-21.3-36.5-20.3
			c-17.3,1.1-29.5,14.6-35.5,39c-4.4,17.9-3.8,35.3-3.8,36C62.2,163.4,63.2,164.4,64.4,164.4z"/>
	</g>
	<g transform="matrix(1,0,0,1,2.22761,0)">
		<path class="st0" d="M-61.1,73.5c0,0,8.3-27.3,32.9-31.3C-4,38.2,8.7,63.7,8.7,63.7s-4.5-37.1-37.8-33C-64,35-61.2,74.1-61.1,73.5
			z"/>
	</g>
	<g transform="matrix(-1,0,0,1,231.135,0)">
		<path class="st0" d="M62.7,73.5c0,0,8.3-27.3,32.9-31.3c24.2-4,36.9,21.6,36.9,21.6s-4.5-37.1-37.8-33
			C59.8,35,62.5,74.1,62.7,73.5z"/>
	</g>
	<g transform="matrix(1,0,0,1,-0.992592,-5.63609)">
		<path class="st1" d="M69.4,188.1c-1,0-1.8-0.6-2.2-1.6c-1.5-4.6-6.8-16.6-13.4-16.6c0,0,0,0,0,0c-6.7,0-12,12-13.6,16.6
			c-0.4,1.2-1.7,1.8-2.9,1.4c-1.2-0.4-1.8-1.7-1.4-2.9c0.7-2,6.8-19.6,17.9-19.7c0,0,0,0,0,0c11.1,0,17.1,17.7,17.8,19.7
			c0.4,1.2-0.3,2.5-1.5,2.9C69.9,188.1,69.7,188.1,69.4,188.1z"/>
	</g>
	<g transform="matrix(1,0,0,1,-2.47823,-10.2633)">
		<g>
			<defs>
				<path id="SVGID_1_" d="M13.4,216c0,0,12.1-6.2,44.4-7.3c35-1.2,46.1,6,46.1,6s7.9,63.8-45.3,62.8C12.1,276.8,13.4,216,13.4,216z
					"/>
			</defs>
			<use xlink:href="#SVGID_1_"  style="overflow:visible;fill-rule:evenodd;clip-rule:evenodd;fill:#FFFFFF;"/>
			<clipPath id="SVGID_00000162344671543070916510000004052489566688784543_">
				<use xlink:href="#SVGID_1_"  style="overflow:visible;"/>
			</clipPath>
			<g style="clip-path:url(#SVGID_00000162344671543070916510000004052489566688784543_);">
				<g transform="matrix(1,0,0,1,-105.26,10.2633)">
					<path class="st1" d="M111.4,235.1c-0.9,0-1.8-0.6-2.1-1.5c-0.4-1.2,0.2-2.5,1.3-2.9c0.5-0.2,49.3-18,106.4-5.3
						c1.2,0.3,2,1.5,1.7,2.7c-0.3,1.2-1.5,2-2.7,1.7c-55.8-12.4-103.4,4.9-103.9,5.1C112,235.1,111.7,235.1,111.4,235.1z"/>
				</g>
			</g>
		</g>
		<path class="st1" d="M59.7,279.9c-0.4,0-0.8,0-1.2,0c-12.2-0.2-22.4-4.5-30.2-12.6c-17.6-18.4-17.1-50-17.1-51.3
			c0-0.8,0.5-1.6,1.2-2c0.5-0.3,12.9-6.4,45.3-7.5c35.3-1.2,46.9,6,47.4,6.3c0.6,0.4,0.9,1,1,1.6c0.2,1.3,3.9,33.1-13.1,52
			C85,275.4,73.8,279.9,59.7,279.9z M15.7,217.5c0.1,6.3,1.6,31.7,15.9,46.6c6.9,7.2,16,11,27,11.2c13.3,0.2,23.7-3.7,31-11.8
			c13.9-15.4,12.6-41.5,12.1-47.3c-3.2-1.5-15.6-6.1-43.9-5.2C32.2,211.9,19.5,216,15.7,217.5z"/>
	</g>
	<g transform="matrix(0.959,0,0,1,8.23691,0.0277072)">
		<path class="st3" d="M-70.9,231.9c-0.8-12.1,2-31.2,29.8-33.3c30.6-2.3,40.3,41.5,19.3,53.2C-42.2,263.2-69.4,254.6-70.9,231.9z"
			/>
	</g>
	<g transform="matrix(0.959,0,0,1,66.3929,0.0277072)">
		<path class="st3" d="M65.2,231.9c-0.8-12.1,2-31.2,29.8-33.3c30.6-2.3,40.3,41.5,19.3,53.2C94,263.2,66.8,254.6,65.2,231.9z"/>
	</g>
</g>
</svg>
