<?xml version="1.0" encoding="utf-8"?>
<!-- Generator: Adobe Illustrator 26.3.1, SVG Export Plug-In . SVG Version: 6.00 Build 0)  -->
<svg version="1.1" id="Layer_1" xmlns="http://www.w3.org/2000/svg" xmlns:xlink="http://www.w3.org/1999/xlink" x="0px" y="0px"
	 viewBox="0 0 300 300" style="enable-background:new 0 0 300 300;" xml:space="preserve">
<style type="text/css">
	.st0{fill-rule:evenodd;clip-rule:evenodd;fill:#2C2540;}
	.st1{fill:#2C2540;}
	.st2{clip-path:url(#SVGID_00000156584848206099734780000010866822209623316880_);}
	.st3{fill-rule:evenodd;clip-rule:evenodd;fill:#FFFFFF;}
	.st4{fill-rule:evenodd;clip-rule:evenodd;fill:#E17C7A;}
</style>
<g transform="matrix(1,0,0,1,291.521,271.463)">
	<g transform="matrix(0.995836,0.0911623,-0.0911623,0.995836,8.55285,-8.1022)">
		<path class="st0" d="M-275-92c0.6-14.9,7-41.2,22.7-36.2c16.7,5.3,22.1,19.4,23.6,38.4c1.6,20-1.5,44.5-20,44.6
			C-268.6-44.9-275.8-72.5-275-92z"/>
	</g>
	<g transform="matrix(-0.995836,0.0911623,0.0911623,0.995836,223.725,-8.1022)">
		<path class="st0" d="M262.3-141.2c0.6-14.9,7-41.2,22.7-36.2c16.7,5.3,22.1,19.4,23.6,38.4c1.6,20-1.5,44.5-20,44.6
			C268.7-94.1,261.5-121.7,262.3-141.2z"/>
	</g>
	<g transform="matrix(1,0,0,1,2.22761,0)">
		<path class="st1" d="M-207.8-138.6c-0.4,0-0.8-0.1-1.2-0.3c-18-8.9-34.6-25.2-47.9-38.3c-5.7-5.6-10.6-10.4-14.7-13.7
			c-5.4-4.4-6.8-3.9-6.9-3.9c0,0-0.8,0.5-1,3.6c-0.1,1.5-1.4,2.5-2.9,2.4c-1.5-0.1-2.5-1.4-2.4-2.9c0.1-1.6,0.6-6.7,4.5-8.1
			c5.6-2.1,12.7,4.6,27.1,18.8c13.1,12.8,29.3,28.8,46.5,37.3c1.3,0.7,1.8,2.2,1.2,3.6C-205.9-139.1-206.9-138.6-207.8-138.6z"/>
	</g>
	<g transform="matrix(-1,0,0,1,230.05,0)">
		<path class="st1" d="M331.7-138.6c1,0,1.9-0.5,2.4-1.5c0.7-1.3,0.1-2.9-1.2-3.6c-17.2-8.6-33.5-24.5-46.5-37.3
			c-14.4-14.1-21.5-20.8-27.1-18.8c-3.9,1.4-4.3,6.5-4.5,8.1c-0.1,1.5,1,2.7,2.4,2.9c1.5,0.1,2.7-1,2.9-2.4c0.3-3.1,1-3.6,1-3.6
			c2.6-1,13.6,9.7,21.6,17.6c13.3,13.1,29.9,29.4,47.9,38.3C330.9-138.7,331.3-138.6,331.7-138.6z"/>
	</g>
	<g transform="matrix(0.835715,0.549164,-0.549164,0.835715,42.8476,-42.155)">
		<path class="st0" d="M-363.7-6.4c-2.3,7.2,9.1,26.7,29,32.9c24.1,7.6,60.4,9.2,70.4,6.5c-8.1-2.7-31-11.2-57.6-21
			C-342.9,4.3-358.7-3.5-363.7-6.4z"/>
	</g>
	<g transform="matrix(1,0,0,1,-354.929,-275.657)">
		<path class="st1" d="M133.7,205.8c-0.4,0-0.7-0.1-1.1-0.2c-22.6-9.9-38.9-7.4-39-7.4c-1.4,0.2-2.8-0.7-3-2.2
			c-0.2-1.4,0.7-2.8,2.2-3c0.7-0.1,17.9-2.8,42,7.8c1.3,0.6,2,2.2,1.4,3.5C135.6,205.3,134.7,205.8,133.7,205.8z"/>
	</g>
	<g transform="matrix(1,0,0,1,-354.929,-275.657)">
		<path class="st1" d="M272.2,205.8c-0.9,0-1.7-0.4-2.2-1.2c-0.8-1.2-0.5-2.9,0.7-3.7c0.6-0.4,14.8-9.8,34.7-8.4
			c1.5,0.1,2.6,1.4,2.5,2.8c-0.1,1.5-1.4,2.6-2.8,2.5c-18-1.3-31.2,7.4-31.4,7.5C273.2,205.7,272.7,205.8,272.2,205.8z"/>
	</g>
	<g transform="matrix(-0.835715,0.549164,0.549164,0.835715,188.198,-42.155)">
		<path class="st0" d="M90.1-304.6c-6.8,2.3,9.1,26.7,29,32.9c24.1,7.6,70,13.8,70.4,6.5c-5.1-3.1-36.8-9.8-64.1-19.7
			C105.3-292.2,97.3-300.7,90.1-304.6z"/>
	</g>
	<g transform="matrix(1,0,0,1,-0.992592,-5.63609)">
		<path class="st1" d="M-171.3-76.8c-0.3,0-0.6,0-0.8-0.1c-1.4-0.5-2.1-2-1.7-3.3c0.8-2.3,7.9-22.9,20.9-23c0,0,0,0,0.1,0
			c12.9,0,20,20.6,20.7,23c0.4,1.4-0.3,2.9-1.7,3.3c-1.4,0.5-2.9-0.3-3.3-1.7c-1.7-5.4-8-19.3-15.7-19.3c0,0,0,0,0,0
			c-7.8,0-14.1,14-15.8,19.3C-169.1-77.5-170.2-76.8-171.3-76.8z"/>
	</g>
	<g transform="matrix(1,0,0,1,-354.929,-275.657)">
		<g>
			<defs>
				<path id="SVGID_1_" d="M158.7,263.6c0,0-2.9-30.1,0-39.3c19,6.2,36.6,1.1,60.5-6.1c24-7.2,52.3-7.8,52.9,19.8
					c0.7,27.6-11.2,26.4-33,29.3C223.5,269.4,158.7,263.6,158.7,263.6z"/>
			</defs>
			<use xlink:href="#SVGID_1_"  style="overflow:visible;fill-rule:evenodd;clip-rule:evenodd;fill:#973319;"/>
			<clipPath id="SVGID_00000112613552748817399890000012740509999935292351_">
				<use xlink:href="#SVGID_1_"  style="overflow:visible;"/>
			</clipPath>
			<g style="clip-path:url(#SVGID_00000112613552748817399890000012740509999935292351_);">
				<g>
					<path class="st3" d="M158.7,218.2c0,0,6.5,13.6,12.3,22.7c5.8,9.1,88.8,5.8,106.8-7.5c0,0,4-18.1-19.5-24.6
						C235,202.2,158.7,218.2,158.7,218.2z"/>
					<path class="st1" d="M203.6,248.7c-9.6,0-18.2-0.6-24.4-1.7c-5.7-1-9-2.5-10.4-4.7c-5.8-9.1-12.2-22.4-12.5-23
						c-0.4-0.7-0.3-1.6,0-2.3c0.4-0.7,1-1.3,1.8-1.4c3.1-0.7,77.1-16,100.9-9.4c25.5,7.1,21.4,27.5,21.3,27.7
						c-0.1,0.6-0.5,1.2-1,1.6C267.8,244.2,231.3,248.7,203.6,248.7z M162.6,220.1c2.3,4.5,6.7,13.1,10.7,19.3c0,0,1.1,1.5,8.4,2.6
						c22.6,3.5,78.4-0.4,93.7-10.2c0.3-3.5,0.2-15.6-17.7-20.5C237.9,205.8,177.5,217.2,162.6,220.1z"/>
				</g>
				<g>
					<path class="st3" d="M161.6,274.2c0,0,2.2-25.5,9.5-33.3c4.6-5,41.5-3,71.1-5.1c20.3-1.5,32.1-4.7,35.7-2.4
						c10,6.3,0.3,34.4,0.3,34.4C242.6,277.4,199.1,277,161.6,274.2z"/>
					<path class="st1" d="M204.7,278.6c-13.4,0-27.8-0.6-43.3-1.7c-0.7-0.1-1.4-0.4-1.8-0.9c-0.5-0.5-0.7-1.2-0.6-2
						c0.2-2.7,2.5-26.6,10.2-34.9c3.6-3.8,16.2-4.3,40.1-4.8c10.9-0.2,22.2-0.5,32.8-1.2c7.7-0.6,14.3-1.4,19.5-2
						c9.5-1.2,14.8-1.9,17.8,0.1c11.5,7.2,2.4,34.4,1.3,37.5c-0.3,0.8-1,1.5-1.8,1.7C258.5,275.9,234.1,278.6,204.7,278.6z
						 M164.5,271.8c46.8,3.3,83.3,1.2,111.5-6.2c3.3-10.2,6.1-26.3,0.4-30c-1.4-0.9-7.7-0.1-14.3,0.7c-5.3,0.7-11.9,1.5-19.8,2.1
						c-10.7,0.8-22.6,1-33,1.2c-15.1,0.3-33.9,0.7-36.3,3.1C168.2,247.9,165.5,263.6,164.5,271.8z"/>
				</g>
			</g>
		</g>
		<path class="st1" d="M228.9,270.4c-23.5,0-68.2-4-70.5-4.2c-1.3-0.1-2.3-1.1-2.4-2.4c-0.1-1.3-2.9-30.7,0.1-40.3
			c0.2-0.7,0.7-1.2,1.3-1.6c0.6-0.3,1.4-0.4,2-0.2c18.5,6,36.4,0.7,59-6.1c11.9-3.6,33.7-8.1,46.6,1.3c6.2,4.5,9.5,11.6,9.7,21
			c0.7,27.5-11.5,29-29.9,31.3c-1.7,0.2-3.6,0.4-5.5,0.7C237,270.3,233.4,270.4,228.9,270.4z M161.2,261.1c11.5,1,64.1,5.4,77.6,3.6
			c1.9-0.3,3.8-0.5,5.5-0.7c18.2-2.2,25.7-3.2,25.2-25.9c-0.2-7.7-2.7-13.4-7.5-16.9c-8.1-5.9-23.4-6-42-0.5
			c-22.4,6.7-40.3,12.1-59.3,6.9C159.5,235.8,160.5,252.6,161.2,261.1z"/>
	</g>
	<g transform="matrix(0.959,0,0,1,8.23691,0.0277072)">
		<path class="st4" d="M-306.2-24.7c-1-14.1,2.3-36.4,34.8-38.9c35.7-2.7,47.1,48.4,22.5,62.1C-272.6,11.8-304.4,1.8-306.2-24.7z"/>
	</g>
	<g transform="matrix(0.959,0,0,1,66.3929,0.0277072)">
		<path class="st4" d="M-137.1-24.7c-1-14.1,2.3-36.4,34.8-38.9c35.7-2.7,47.1,48.4,22.5,62.1C-103.5,11.8-135.2,1.8-137.1-24.7z"/>
	</g>
</g>
</svg>
