<?xml version="1.0" encoding="utf-8"?>
<!-- Generator: Adobe Illustrator 26.3.1, SVG Export Plug-In . SVG Version: 6.00 Build 0)  -->
<svg version="1.1" id="Layer_1" xmlns="http://www.w3.org/2000/svg" xmlns:xlink="http://www.w3.org/1999/xlink" x="0px" y="0px"
	 viewBox="0 0 300 300" style="enable-background:new 0 0 300 300;" xml:space="preserve">
<style type="text/css">
	.st0{fill-rule:evenodd;clip-rule:evenodd;fill:#2C2540;}
	.st1{fill:#2C2540;}
	.st2{fill-rule:evenodd;clip-rule:evenodd;fill:#E17C7A;}
</style>
<g transform="matrix(1,0,0,1,399.146,95.3661)">
	<g transform="matrix(0.364894,0,0,0.364894,59.6623,31.3376)">
		<path class="st0" d="M-1126-23.6c0.6-15.2,6.8-39.5,23.6-40c17.8-0.6,22.1,23,23.7,42.3c1.7,20.4-1.6,45.4-20.4,45.5
			C-1119.5,24.4-1126.9-3.8-1126-23.6z"/>
	</g>
	<g transform="matrix(-0.364894,0,0,0.364894,174.031,31.3376)">
		<path class="st0" d="M900.1-23.6c0.6-15.2,6.8-39.5,23.6-40c17.8-0.6,22.1,23,23.7,42.3C949-0.9,945.8,24,927,24.2
			C906.6,24.4,899.2-3.8,900.1-23.6z"/>
	</g>
	<g transform="matrix(1,0,0,1,2.22761,0)">
		<path class="st1" d="M-388.3,73.5c-1.4,0-2.5-1-2.7-2.4c-0.2-1.5-3.8-36.4,14-57.8c7.8-9.5,18.6-14.8,32.1-15.9
			c9.6-0.8,18.4,2,25.3,8c11.5,9.9,18.4,28.2,20.4,54.4c0.1,1.5-1,2.8-2.5,2.9c-1.5,0.1-2.8-1-2.9-2.5c-1.9-24.7-8.2-41.8-18.5-50.7
			c-6-5.1-13.2-7.3-21.4-6.7c-11.9,0.9-21.5,5.6-28.4,13.9c-16.3,19.7-12.8,53.4-12.8,53.8c0.2,1.5-0.9,2.8-2.4,3
			C-388.1,73.5-388.2,73.5-388.3,73.5z"/>
	</g>
	<g transform="matrix(-1,0,0,1,231.636,0)">
		<path class="st1" d="M350.5,73.5c0.1,0,0.2,0,0.3,0c1.5-0.2,2.6-1.5,2.4-3c0-0.3-3.5-34.1,12.8-53.8c6.9-8.3,16.4-13,28.3-13.9
			c8.3-0.7,15.5,1.6,21.4,6.7c10.4,8.9,16.6,25.9,18.5,50.7c0.1,1.5,1.4,2.6,2.9,2.5c1.5-0.1,2.6-1.4,2.5-2.9
			c-2-26.2-8.9-44.5-20.4-54.4c-7-6-15.8-8.7-25.3-8c-13.5,1.1-24.3,6.4-32.1,15.9c-17.8,21.5-14.2,56.3-14,57.8
			C348,72.5,349.2,73.5,350.5,73.5z"/>
	</g>
	<g transform="matrix(0.972878,-0.23132,0.23132,0.972878,-488.056,134.408)">
		<path class="st1" d="M151.7,23.9c-0.7-0.2-1.4-0.4-2.1-0.6c-8.2-2.5-14.9-7.6-17-13.2c-0.5-1.4,0.2-3,1.6-3.5
			c1.4-0.5,3,0.2,3.5,1.6c1.2,3.3,5.9,7.7,13.4,9.9c6,1.8,18,3.4,30.9-6c1.2-0.9,2.9-0.6,3.8,0.6c0.9,1.2,0.6,2.9-0.6,3.8
			C175.1,24,163,26.6,151.7,23.9z"/>
	</g>
	<g transform="matrix(1,0,0,1,-443.17,-99.3769)">
		<path class="st1" d="M112.2,231.6c-4.3,0-7.1-0.8-7.4-0.9c-1.4-0.4-2.2-2-1.8-3.4c0.4-1.4,2-2.2,3.4-1.8
			c0.5,0.1,11.2,3.2,22.6-4.9c1.2-0.9,2.9-0.6,3.8,0.6c0.9,1.2,0.6,2.9-0.6,3.8C124.7,230.4,117.4,231.6,112.2,231.6z"/>
	</g>
	<g transform="matrix(1,0,0,1,-443.17,-99.3769)">
		<path class="st1" d="M277.4,229.5c-13.1,0-24-9.7-24.2-9.8c-1.1-1-1.2-2.7-0.2-3.8c1-1.1,2.7-1.2,3.8-0.2l0,0
			c0.7,0.6,16.9,15,31.8,4.9c1.2-0.8,2.9-0.5,3.8,0.7c0.8,1.2,0.5,2.9-0.7,3.8C287,228.3,282.1,229.5,277.4,229.5z"/>
	</g>
	<g transform="matrix(-0.9223,-0.386475,-0.386475,0.9223,708.189,229.302)">
		<path class="st1" d="M846.1,237.1c6,2.5,15.6,3.8,29.3-2.1c1.4-0.6,2-2.2,1.4-3.6c-0.6-1.4-2.2-2-3.6-1.4
			c-10.3,4.4-19.4,4.9-26.3,1.5c-5.5-2.8-9.6-8.2-11.1-14.4c-0.3-1.5-1.8-2.4-3.3-2c-1.5,0.3-2.4,1.8-2,3.3c1.8,7.8,7,14.5,14,18
			C845,236.6,845.5,236.9,846.1,237.1z"/>
	</g>
	<g transform="matrix(0.620352,0,0,0.620352,38.7438,13.0356)">
		<path class="st0" d="M-646.8-68.7c0,0,16.9-36.8,32.8-39.3c25-3.9,47.7,31.3,47.7,31.3s-18.6-55.3-45.2-52.1
			C-639.1-125.5-647-68-646.8-68.7z"/>
	</g>
	<g transform="matrix(-0.620352,0,0,0.620352,196.243,13.0356)">
		<path class="st0" d="M539-68.7c0,0,16.9-36.8,32.8-39.3c25-3.9,47.7,31.3,47.7,31.3s-18.6-55.3-45.2-52.1
			C546.7-125.5,538.7-68,539-68.7z"/>
	</g>
	<g transform="matrix(1,0,0,1,-0.992592,-5.63609)">
		<path class="st1" d="M-273.6,116.5c-0.3,0-0.6,0-0.8-0.1c-1.4-0.5-2.2-2-1.7-3.4c0.8-2.4,8.1-23.4,21.3-23.4c0,0,0,0,0.1,0
			c13.2,0,20.4,21,21.2,23.5c0.5,1.4-0.3,2.9-1.7,3.4c-1.4,0.5-2.9-0.3-3.4-1.7c-1.8-5.5-8.1-19.7-16-19.7c0,0,0,0,0,0
			c-7.9,0-14.3,14.2-16.2,19.7C-271.4,115.8-272.4,116.5-273.6,116.5z"/>
	</g>
	<g transform="matrix(1,0,0,1,-444.696,-99.3769)">
		<path class="st1" d="M196.2,275.6c-5.3,0-7.9-6.3-10.4-12.4c-1.9-4.7-4.3-10.5-7-10.6c0,0,0,0-0.1,0c-2.5,0-5.1,4.8-7.3,9.1
			c-3.2,6-6.8,12.8-13.2,12.4c-6.7-0.4-8.9-7.5-10.9-13.8c-1.2-3.8-2.7-8.5-4.6-8.7c-3.4-0.4-10.7,10-15.3,19.9
			c-0.6,1.4-2.2,1.9-3.6,1.3c-1.4-0.6-1.9-2.2-1.3-3.6c2.6-5.7,11.8-24,20.8-23c5.4,0.6,7.3,6.6,9.2,12.4c1.5,4.8,3.1,9.8,6.1,10
			c2.9,0.2,5.7-5,8.1-9.5c3.2-6,6.5-12.1,12.4-11.9c6.2,0.2,9.2,7.5,11.8,13.9c1.4,3.4,3.7,9.1,5.4,9.1c0,0,0,0,0,0
			c2.4-0.1,4.8-5.7,6.8-10.2c3.1-6.9,6.3-14,12.6-13.4c5.7,0.5,9,6.6,12.3,12.5c2.4,4.4,5.2,9.5,8,9.5c0.1,0,0.1,0,0.2,0
			c3.9-0.3,5.5-4.2,7.4-10.1c1.5-4.8,3.1-9.7,7.9-9.8c0,0,0.1,0,0.1,0c7,0,14.9,14.9,17.9,21.3c0.6,1.3,0.1,3-1.3,3.6
			c-1.3,0.6-3,0.1-3.6-1.3c-4.6-9.6-10.7-18.2-13-18.2c0,0,0,0,0,0c-0.9,0-2.2,3.9-2.9,6c-1.8,5.5-4.2,13.1-12,13.8
			c-6.3,0.5-9.9-6-13.4-12.2c-2.4-4.4-5.2-9.4-8-9.7c-2.5-0.2-5.1,5.6-7.2,10.2c-2.9,6.4-5.8,13-11.5,13.4
			C196.5,275.6,196.3,275.6,196.2,275.6z"/>
	</g>
	<g transform="matrix(0.402328,0,0,0.419529,51.3708,46.1992)">
		<path class="st2" d="M-1090.2,215.5c-1-14.4,2.4-37.1,35.5-39.7c36.4-2.8,48,49.4,23,63.4C-1056,252.7-1088.4,242.5-1090.2,215.5z
			"/>
	</g>
	<g transform="matrix(0.402328,0,0,0.419529,115.869,46.1992)">
		<path class="st2" d="M-631.1,215.5c-1-14.4,2.4-37.1,35.5-39.7c36.4-2.8,48,49.4,23,63.4C-596.9,252.7-629.2,242.5-631.1,215.5z"
			/>
	</g>
</g>
</svg>
