<?xml version="1.0" encoding="utf-8"?>
<!-- Generator: Adobe Illustrator 26.3.1, SVG Export Plug-In . SVG Version: 6.00 Build 0)  -->
<svg version="1.1" id="Layer_1" xmlns="http://www.w3.org/2000/svg" xmlns:xlink="http://www.w3.org/1999/xlink" x="0px" y="0px"
	 viewBox="0 0 300 300" style="enable-background:new 0 0 300 300;" xml:space="preserve">
<style type="text/css">
	.st0{fill-rule:evenodd;clip-rule:evenodd;fill:#2C2540;}
	.st1{fill:#2C2540;}
	.st2{clip-path:url(#SVGID_00000091711321794094379570000009107017582365751999_);}
	.st3{fill-rule:evenodd;clip-rule:evenodd;fill:#C9401E;}
	.st4{fill-rule:evenodd;clip-rule:evenodd;fill:#E17C7A;}
</style>
<g transform="matrix(1,0,0,1,594.498,269.175)">
	<g transform="matrix(1,0,0,-1,2.22761,125.73)">
		<path class="st0" d="M-498.2,291c-8.7-13.4-14.9-24.6-36.4-25.2c-29-0.8-52.4,36.4-52.4,36.4s2.5-61.4,55-58.9
			C-505,244.5-497.3,265.4-498.2,291z"/>
	</g>
	<g transform="matrix(-1,0,0,-1,231.535,125.73)">
		<path class="st0" d="M631.2,291c-8.7-13.4-14.9-24.6-36.4-25.2c-29-0.8-52.4,36.4-52.4,36.4s2.5-61.4,55-58.9
			C624.4,244.5,632.1,265.4,631.2,291z"/>
	</g>
	<g transform="matrix(0.620352,0,0,0.620352,38.7438,18.203)">
		<path class="st0" d="M-969.1-381.3c0,0,10.5-26,36.5-31c27.9-5.3,48.8,19.1,48.8,19.1s-5.6-45.4-46.2-40.4
			C-972.6-428.5-969.3-380.6-969.1-381.3z"/>
	</g>
	<g transform="matrix(-0.620352,0,0,0.620352,196.291,18.203)">
		<path class="st0" d="M845.4-381.3c0,0,10.5-26,36.5-31c27.9-5.3,48.8,19.1,48.8,19.1s-5.6-45.4-46.2-40.4
			C841.9-428.5,845.2-380.6,845.4-381.3z"/>
	</g>
	<g transform="matrix(1,0,0,1,-0.992592,-5.63609)">
		<path class="st1" d="M-469.3-83.1c-0.3,0-0.6,0-0.9-0.1c-1.5-0.5-2.3-2.1-1.8-3.5c0.8-2.5,8.3-24,21.9-24.1c0,0,0,0,0.1,0
			c13.6,0,20.9,21.6,21.7,24.1c0.5,1.5-0.3,3-1.8,3.5c-1.5,0.5-3-0.3-3.5-1.8c-1.8-5.6-8.3-20.2-16.4-20.2c0,0,0,0,0,0
			c-8.2,0-14.7,14.6-16.6,20.3C-467-83.8-468.1-83.1-469.3-83.1z"/>
	</g>
	<g transform="matrix(1,0,0,1,-611.25,-269.41)">
		<g>
			<defs>
				<path id="SVGID_1_" d="M126,241.5c3.9-27.8,37.4-49.3,59.7-33.1c29.6,21.4,13.6,48.8-6.4,64.6
					C159.3,288.6,121.3,274.8,126,241.5z"/>
			</defs>
			<use xlink:href="#SVGID_1_"  style="overflow:visible;fill-rule:evenodd;clip-rule:evenodd;fill:#973319;"/>
			<clipPath id="SVGID_00000039125324464883722270000012385311583102282679_">
				<use xlink:href="#SVGID_1_"  style="overflow:visible;"/>
			</clipPath>
			<g style="clip-path:url(#SVGID_00000039125324464883722270000012385311583102282679_);">
				<g>
					<path class="st3" d="M125.6,279.4c0,0,6.3-35.8,34.5-38.3c28.3-2.5,35.7,38.3,35.7,38.3S152.2,310.8,125.6,279.4z"/>
					<path class="st1" d="M155.7,296.1c-12.9,0-23.8-5-32.2-14.9c-0.5-0.6-0.8-1.5-0.6-2.3c0.3-1.5,7-38,37-40.6
						c30.5-2.7,38.6,40.1,38.7,40.6c0.2,1.1-0.2,2.1-1.1,2.8c-0.5,0.3-11.5,8.2-26,12.2C165.9,295.4,160.7,296.1,155.7,296.1z
						 M128.6,278.6c10.2,11.3,24.1,14.6,41.2,9.9c10.6-2.9,19.5-8.2,22.9-10.4c-1.8-7.5-10.1-36.3-32.3-34.3
						C137.5,245.8,130,272.4,128.6,278.6z"/>
				</g>
			</g>
		</g>
		<path class="st1" d="M159.5,282.1c-6.7,0-13.5-1.7-19.5-5.2c-12.7-7.3-19-20.7-16.8-35.9l0,0c2.3-16,14.2-31.2,29.7-37.8
			c12.2-5.2,24.8-4.2,34.4,2.8c11.4,8.2,17.2,17.9,17.5,28.8c0.4,19.1-16.5,34.5-23.8,40.2C175.1,279.8,167.4,282.1,159.5,282.1z
			 M168.4,205.5c-4.3,0-8.8,1-13.3,2.9c-13.8,5.9-24.4,19.3-26.4,33.4l0,0c-1.8,13,3.3,24.1,14.1,30.3c11.2,6.4,25.5,5.8,34.8-1.4
			c13.8-10.8,21.9-24.2,21.7-35.7c-0.2-9.1-5.3-17.3-15.2-24.4C179.5,207.2,174.1,205.5,168.4,205.5z M126,241.5L126,241.5
			L126,241.5z"/>
	</g>
	<g transform="matrix(0.804656,0,0,0.839058,21.4379,16.4403)">
		<path class="st4" d="M-751.4-47.4c-1-14.8,2.5-38.2,36.5-40.8c37.4-2.9,49.3,50.8,23.6,65.1C-716.2-9.1-749.5-19.6-751.4-47.4z"/>
	</g>
	<g transform="matrix(0.804656,0,0,0.839058,76.7588,16.4403)">
		<path class="st4" d="M-547.1-47.4c-1-14.8,2.5-38.2,36.5-40.8c37.4-2.9,49.3,50.8,23.6,65.1C-512-9.1-545.2-19.6-547.1-47.4z"/>
	</g>
</g>
</svg>
