<?xml version="1.0" encoding="utf-8"?>
<!-- Generator: Adobe Illustrator 26.3.1, SVG Export Plug-In . SVG Version: 6.00 Build 0)  -->
<svg version="1.1" id="Layer_1" xmlns="http://www.w3.org/2000/svg" xmlns:xlink="http://www.w3.org/1999/xlink" x="0px" y="0px"
	 viewBox="0 0 300 300" style="enable-background:new 0 0 300 300;" xml:space="preserve">
<style type="text/css">
	.st0{fill-rule:evenodd;clip-rule:evenodd;fill:#2C2540;}
	.st1{fill:#2C2540;}
	.st2{fill-rule:evenodd;clip-rule:evenodd;fill:#973319;}
	.st3{fill-rule:evenodd;clip-rule:evenodd;fill:#E17C7A;}
</style>
<g transform="matrix(1,0,0,1,593.574,87.0692)">
	<g transform="matrix(0.524264,0,0,0.524264,54.9971,26.1063)">
		<path class="st0" d="M-1083.1,29.5c0.6-15.1,6.8-39.1,23.5-39.7c17.6-0.6,21.9,22.8,23.5,42c1.7,20.3-1.6,45-20.2,45.1
			C-1076.7,77.1-1084,49.2-1083.1,29.5z"/>
	</g>
	<g transform="matrix(-0.464243,0,0,0.464243,173.994,30.9532)">
		<path class="st0" d="M1206.4,29c0.6-15.1,6.8-39.1,23.5-39.7c17.6-0.6,21.9,22.8,23.5,42c1.7,20.3-1.6,45-20.2,45.1
			C1212.9,76.6,1205.6,48.7,1206.4,29z"/>
	</g>
	<g transform="matrix(1,0,0,1,6.68183,0)">
		<path class="st1" d="M-572.2,53.8c-0.3,0-0.7-0.1-1-0.2c-1.4-0.6-2-2.1-1.4-3.5c0.9-2.2,23.3-54.2,74.4-62.3
			c1.5-0.2,2.8,0.8,3.1,2.2c0.2,1.5-0.8,2.8-2.2,3.1c-48.1,7.6-70,58.5-70.3,59C-570.1,53.1-571.1,53.8-572.2,53.8z"/>
	</g>
	<g transform="matrix(-1,0,0,1,229.252,0)">
		<path class="st1" d="M556.1,53.8c1,0,2-0.6,2.5-1.6c0.2-0.5,22.2-51.5,70.3-59c1.5-0.2,2.5-1.6,2.2-3.1c-0.2-1.5-1.6-2.5-3.1-2.2
			c-51.1,8-73.4,60.1-74.4,62.3c-0.6,1.4,0.1,2.9,1.4,3.5C555.4,53.7,555.7,53.8,556.1,53.8z"/>
	</g>
	<g transform="matrix(1,0,0,1,-490.012,-163.333)">
		<path class="st1" d="M5.7,281.3c-0.8,0-1.6-0.3-2.1-1c-4.5-5.5-12.2-9.1-19.6-9.2c-4.7,0-8.4,1.3-10.5,3.7c-1,1.1-2.6,1.3-3.8,0.3
			c-1.1-1-1.3-2.6-0.3-3.8c3.1-3.7,8.3-5.7,14.6-5.7c9.2,0.1,18.3,4.4,23.8,11.2c0.9,1.2,0.8,2.8-0.4,3.8
			C6.9,281.1,6.3,281.3,5.7,281.3z"/>
	</g>
	<g transform="matrix(-1,0,0,1,725.946,-163.333)">
		<path class="st1" d="M1134,281.3c0.6,0,1.2-0.2,1.7-0.6c1.2-0.9,1.3-2.6,0.4-3.8c-5.5-6.8-14.6-11.1-23.8-11.2
			c-6.4,0-11.5,2-14.6,5.7c-1,1.1-0.8,2.8,0.3,3.8c1.1,1,2.8,0.8,3.8-0.3c2-2.4,5.7-3.7,10.3-3.7c0.1,0,0.1,0,0.2,0
			c7.5,0.1,15.2,3.7,19.6,9.2C1132.4,280.9,1133.2,281.3,1134,281.3z"/>
	</g>
	<g transform="matrix(1,0,0,1,-568.153,-171.959)">
		<path class="st1" d="M24.3,275.1c-0.8,0-1.5-0.3-2.1-1c-9.8-11.7-12.7-24.4-12.8-24.9c-0.3-1.4,0.6-2.9,2-3.2
			c1.4-0.3,2.9,0.6,3.2,2c0,0.2,2.8,12,11.7,22.6c1,1.1,0.8,2.8-0.3,3.8C25.5,274.9,24.9,275.1,24.3,275.1z"/>
	</g>
	<g transform="matrix(-1,0,0,1,804.087,-171.959)">
		<path class="st1" d="M1152.6,275.1c0.6,0,1.2-0.2,1.7-0.6c1.1-1,1.3-2.6,0.3-3.8c-8.9-10.6-11.6-22.5-11.7-22.6
			c-0.3-1.4-1.8-2.4-3.2-2c-1.4,0.3-2.4,1.7-2,3.2c0.1,0.5,3,13.2,12.8,24.9C1151,274.8,1151.8,275.1,1152.6,275.1z"/>
	</g>
	<g transform="matrix(1,0,0,1,-568.153,-171.959)">
		<path class="st1" d="M18.2,279.7c-0.5,0-0.9-0.1-1.4-0.4c-7.2-4.3-13.8-17-14-17.6c-0.7-1.3-0.2-2.9,1.2-3.6
			c1.3-0.7,2.9-0.2,3.6,1.2c1.7,3.3,7.2,12.5,12,15.4c1.3,0.8,1.7,2.4,0.9,3.7C20,279.3,19.1,279.7,18.2,279.7z"/>
	</g>
	<g transform="matrix(-1,0,0,1,804.087,-171.959)">
		<path class="st1" d="M1146.4,279.7c0.9,0,1.8-0.5,2.3-1.3c0.8-1.3,0.4-2.9-0.9-3.7c-4.9-2.9-10.3-12.1-12-15.4
			c-0.7-1.3-2.3-1.8-3.6-1.2c-1.3,0.7-1.8,2.3-1.2,3.6c0.3,0.5,6.9,13.3,14,17.6C1145.5,279.6,1146,279.7,1146.4,279.7z"/>
	</g>
	<g transform="matrix(0.620352,0,0,0.620352,43.1981,13.0356)">
		<path class="st0" d="M-943.3-68.6c0,0,14.7-53.5,30.8-57.4c20.1-4.9,46.6,34.3,46.6,34.3s-20.4-60-44.1-54.9
			C-940.2-140-943.5-67.8-943.3-68.6z"/>
	</g>
	<g transform="matrix(-0.620352,0,0,0.620352,192.736,13.0356)">
		<path class="st0" d="M874.8-68.6c0,0,15.3-53.5,31.5-57.4c20.1-4.9,43.6,35.8,43.6,35.8s-17.4-61.5-41.1-56.4
			C878.5-140,874.6-67.8,874.8-68.6z"/>
	</g>
	<g transform="matrix(1,0,0,1,1.14044,-5.63609)">
		<path class="st1" d="M-465,112.9c-0.3,0-0.6,0-0.8-0.1c-1.4-0.5-2.2-2-1.7-3.4c0.8-2.4,8-23.2,21.1-23.2c0,0,0,0,0.1,0
			c13.1,0,20.2,20.9,21,23.3c0.5,1.4-0.3,2.9-1.7,3.4c-1.4,0.5-2.9-0.3-3.4-1.7c-1.8-5.4-8.1-19.5-15.9-19.5c0,0,0,0,0,0
			c-7.9,0-14.2,14.1-16,19.6C-462.8,112.2-463.8,112.9-465,112.9z"/>
	</g>
	<g transform="matrix(1,0,0,1,-572.608,-171.959)">
		<g>
			<path class="st2" d="M69.8,347.9c-1.7-16.8,3-39.9,13.8-36.2c10.8,3.7,16.8,16.9,25.1,15.2c8.3-1.7,47-21.9,62-17.5
				c26.4,7.7,17.3,25.6,10.9,46.4c-6.9,22.5-20.6-3.3-29.7-6.7c-9.1-3.4-10,20.3-24.7,23.7c-14.8,3.3-16.6-18.7-26.4-18.4
				C91.2,354.8,71.8,367.5,69.8,347.9z"/>
			<path class="st1" d="M124.3,375.9c-7.9,0-12.4-6.6-15.7-11.6c-3-4.5-5-7.2-7.6-7.1c-2.2,0.1-5.2,0.9-8.4,1.9
				c-6.8,1.9-14.4,4.1-19.8,0.5c-3.1-2.1-5-5.9-5.6-11.3c0,0,0,0,0,0c-1.4-13.8,1.2-31.6,8.6-37.5c2.6-2.1,5.6-2.6,8.8-1.5
				c5.4,1.9,9.6,5.7,13.3,9.1c3.9,3.6,7.2,6.6,10.4,6c2.1-0.4,7.2-2.5,13-4.9c16.3-6.7,38.7-15.9,50.3-12.5
				c8.9,2.6,14.6,6.5,17.5,12c4.6,8.8,1,19.8-2.8,31.6c-0.7,2-1.3,4.1-2,6.2c-1.9,6.3-4.7,9.9-8.3,10.8c-5.7,1.5-11.3-3.9-16.6-9.1
				c-2.9-2.9-6-5.8-8.2-6.6c-1.9-0.7-3.3,1.2-6.5,7.3c-3.5,6.4-7.8,14.5-16.7,16.5C126.6,375.8,125.5,375.9,124.3,375.9z
				 M101.1,351.8c5.5,0,8.8,4.8,11.9,9.5c4.4,6.5,7.5,10.3,13.6,9c6.5-1.5,10-8,13.1-13.8c3.1-5.7,6.6-12.2,13.1-9.8
				c3.3,1.2,6.6,4.4,10.1,7.8c3.9,3.8,8.8,8.5,11.6,7.7c1.6-0.4,3.2-3,4.5-7.2c0.7-2.1,1.3-4.2,2-6.3c3.6-11.1,6.7-20.6,3.2-27.4
				c-2.2-4.1-6.8-7.2-14.3-9.3c-9.8-2.9-32.9,6.7-46.8,12.3c-6.6,2.7-11.3,4.7-14,5.2c-5.9,1.2-10.6-3.1-15.1-7.3
				c-3.5-3.2-7-6.5-11.4-8c-1.4-0.5-2.5-0.3-3.7,0.6c-4.9,3.9-8,18.9-6.6,32.7l0,0c0.4,3.7,1.5,6.2,3.2,7.4
				c3.4,2.3,9.7,0.4,15.3-1.2c3.5-1,6.9-2,9.7-2.1C100.9,351.8,101,351.8,101.1,351.8z"/>
		</g>
	</g>
	<g transform="matrix(0.607429,0,0,0.633399,38.3067,30.6281)">
		<path class="st3" d="M-1007.9,189.1c-1-14.3,2.4-36.8,35.2-39.3c36.1-2.8,47.6,49,22.8,62.9C-974,226.1-1006.1,215.9-1007.9,189.1
			z"/>
	</g>
	<g transform="matrix(0.607429,0,0,0.633399,95.0695,30.6281)">
		<path class="st3" d="M-743.2,189.1c-1-14.3,2.4-36.8,35.2-39.3c36.1-2.8,47.6,49,22.8,62.9C-709.3,226.1-741.4,215.9-743.2,189.1z
			"/>
	</g>
</g>
</svg>
