<?xml version="1.0" encoding="utf-8"?>
<!-- Generator: Adobe Illustrator 26.3.1, SVG Export Plug-In . SVG Version: 6.00 Build 0)  -->
<svg version="1.1" id="Layer_1" xmlns="http://www.w3.org/2000/svg" xmlns:xlink="http://www.w3.org/1999/xlink" x="0px" y="0px"
	 viewBox="0 0 300 300" style="enable-background:new 0 0 300 300;" xml:space="preserve">
<style type="text/css">
	.st0{fill-rule:evenodd;clip-rule:evenodd;fill:#2C2540;}
	.st1{fill:#2C2540;}
	.st2{clip-path:url(#SVGID_00000086661475687629851080000004151305239793303681_);}
	.st3{fill-rule:evenodd;clip-rule:evenodd;fill:#FFFFFF;}
	.st4{fill-rule:evenodd;clip-rule:evenodd;fill:#E17C7A;}
</style>
<g transform="matrix(1,0,0,1,193.501,274.88)">
	<g transform="matrix(0.768439,0,0,0.768439,24.6571,17.4298)">
		<path class="st0" d="M-211.8-163.2c0.6-15.6,7-40.6,24.3-41.1c18.2-0.6,22.7,23.6,24.3,43.5c1.7,21-3.7,46.6-23,46.8
			C-207.2-113.9-212.7-142.8-211.8-163.2z"/>
	</g>
	<g transform="matrix(-0.768439,0,0,0.768439,207.503,17.4298)">
		<path class="st0" d="M195.2-163.2c0.6-15.6,7-40.6,24.3-41.1c18.2-0.6,22.7,23.6,24.3,43.5c1.7,21-7.5,46.6-26.8,46.8
			C196-113.9,194.3-142.8,195.2-163.2z"/>
	</g>
	<g transform="matrix(1,0,0,1,1.10523,0)">
		<path class="st1" d="M-165-121.8c-0.6,0-0.9,0-1.1,0c-1.5-0.1-2.7-1.4-2.6-2.9c0.1-1.5,1.4-2.7,2.9-2.6c0.5,0,40.4,1.2,66.9-41.5
			c0.8-1.3,2.5-1.7,3.8-0.9c1.3,0.8,1.7,2.5,0.9,3.8C-120.4-123.8-158-121.8-165-121.8z"/>
	</g>
	<g transform="matrix(-1,0,0,1,231.055,0)">
		<path class="st1" d="M147.7-121.8c7,0,44.6-2,70.8-44.1c0.8-1.3,0.4-3-0.9-3.8c-1.3-0.8-3-0.4-3.8,0.9
			c-26.5,42.7-66.5,41.5-66.9,41.5c-1.5-0.1-2.8,1.1-2.9,2.7c-0.1,1.5,1.1,2.8,2.6,2.9C146.8-121.8,147.2-121.8,147.7-121.8z"/>
	</g>
	<g transform="matrix(0.60066,-0.799505,-0.799505,-0.60066,68.4859,141.841)">
		<path class="st0" d="M108.2,397.5c0,0,15.5-23.8,42-33.9c25.8-9.9,57.3,7.2,57.3,7.2s-28.8-33.8-62.2-19.9
			C103.8,368.1,108.6,403.9,108.2,397.5z"/>
	</g>
	<g transform="matrix(-0.60066,-0.799505,0.799505,-0.60066,162.058,141.841)">
		<path class="st0" d="M298.9,143.6c0,0,15.5-23.8,42-33.9c25.8-9.9,57.3,7.2,57.3,7.2S369.3,83.1,335.9,97
			C294.5,114.2,299.4,150.1,298.9,143.6z"/>
	</g>
	<g transform="matrix(1,0,0,1,-0.992592,-5.63609)">
		<path class="st1" d="M-58.6-66.1c-0.3,0-0.6,0-0.9-0.1c-1.5-0.5-2.2-2.1-1.8-3.5c0.8-2.5,8.3-24,21.9-24.1c0,0,0,0,0.1,0
			c13.6,0,22.2,19.7,22.6,20.5c0.6,1.4,0,3-1.5,3.7c-1.4,0.6-3,0-3.7-1.5c-2.1-4.8-9.2-17.2-17.5-17.2c0,0,0,0,0,0
			c-8.1,0-14.7,14.6-16.6,20.3C-56.3-66.9-57.4-66.1-58.6-66.1z"/>
	</g>
	<g transform="matrix(1,0,0,1,-249.113,-281.968)">
		<g>
			<defs>
				<path id="SVGID_1_" d="M170.1,229.5c13.4-7.6,54.3-9.6,70.4,1.2c10.8,7.3,23.5,40.1,11.7,42.6c-11.8,2.5-90.9,5-96.8-1
					C149.6,266.4,158.5,236.1,170.1,229.5z"/>
			</defs>
			<use xlink:href="#SVGID_1_"  style="overflow:visible;fill-rule:evenodd;clip-rule:evenodd;fill:#973319;"/>
			<clipPath id="SVGID_00000130605514435290570530000007812768319032474774_">
				<use xlink:href="#SVGID_1_"  style="overflow:visible;"/>
			</clipPath>
			<g style="clip-path:url(#SVGID_00000130605514435290570530000007812768319032474774_);">
				<g>
					<path class="st3" d="M144.2,282.6c0,0,17.2-31.9,28.5-32.9c11.3-1,62-2.5,69.7,0c7.7,2.5,19.5,33.2,19.5,33.2L144.2,282.6z"/>
					<path class="st1" d="M261.9,285.6C261.9,285.6,261.9,285.6,261.9,285.6l-117.7-0.3c-1,0-1.9-0.5-2.4-1.4
						c-0.5-0.8-0.5-1.9-0.1-2.7c3-5.5,18.5-33.3,30.7-34.4c10.5-0.9,62.4-2.6,70.8,0.1c8.3,2.7,18.3,27.3,21.2,34.8
						c0.3,0.9,0.2,1.8-0.3,2.6C263.7,285.2,262.8,285.6,261.9,285.6z M149,279.8l108.9,0.2c-5.4-13.1-12.6-26.6-16.2-27.7
						c-6.8-2.2-55.5-1-68.6,0.1C166.6,253,155.8,268.2,149,279.8z"/>
				</g>
				<g>
					<path class="st3" d="M164.4,223.2c0,0,1.9,22.1,8.4,26.4c6.4,4.3,65.3,1.9,69.7,0c4.4-1.9,5.5-29.5,5.5-29.5
						C220.8,216.7,192.9,217.8,164.4,223.2z"/>
					<path class="st1" d="M200.1,254.9c-13.5,0-25.7-0.8-28.9-2.9c-7.2-4.8-9.2-24.6-9.6-28.5c-0.1-1.4,0.8-2.7,2.2-3
						c28.9-5.5,57.3-6.6,84.5-3.1c1.4,0.2,2.5,1.4,2.4,2.9c-0.8,19.5-3.2,30.2-7.2,32C240.9,253.4,219.2,254.9,200.1,254.9z
						 M167.4,225.5c1,8.5,3.6,19.6,6.9,21.9c5.5,3.5,60.8,1.5,66.9-0.2c1.7-2.2,3.3-13.8,3.9-24.6
						C220,219.7,193.9,220.7,167.4,225.5z M241.1,247.3L241.1,247.3L241.1,247.3z"/>
				</g>
			</g>
		</g>
		<path class="st1" d="M195.1,278.9c-37.3,0-40.4-3.3-41.7-4.5c-2.4-2.5-3.2-7.2-2.2-13.9c1.8-12.5,8.8-28.3,17.5-33.3c0,0,0,0,0,0
			c13.9-7.9,56.1-10.2,73.3,1.3c9.8,6.6,19.5,29.1,17.3,40.2c-0.8,4-3.1,6.7-6.6,7.4c-6.3,1.3-29.3,2.6-51.2,2.8
			C199.3,278.9,197.2,278.9,195.1,278.9z M171.5,232L171.5,232c-6.8,3.9-13.3,18.5-14.8,29.3c-0.8,5.9,0.1,8.6,0.7,9.3
			c6,4.5,80.3,3.1,94.2,0.2c0.5-0.1,1.8-0.4,2.3-3c1.7-8.9-7.1-29.2-15-34.5C224,223,183.9,224.9,171.5,232z"/>
	</g>
	<g transform="matrix(0.529443,0,0,0.552078,42.9948,35.8282)">
		<path class="st4" d="M-402.6-131.7c-1-14.8,2.5-38.2,36.5-40.8c37.4-2.9,49.3,50.8,23.6,65.1C-367.5-93.4-400.7-103.9-402.6-131.7
			z"/>
	</g>
	<g transform="matrix(0.529443,0,0,0.552078,97.1439,35.8282)">
		<path class="st4" d="M-98.8-131.7c-1-14.8,2.5-38.2,36.5-40.8c37.4-2.9,49.3,50.8,23.6,65.1C-63.6-93.4-96.9-103.9-98.8-131.7z"/>
	</g>
</g>
</svg>
