<?xml version="1.0" encoding="utf-8"?>
<!-- Generator: Adobe Illustrator 26.3.1, SVG Export Plug-In . SVG Version: 6.00 Build 0)  -->
<svg version="1.1" id="Layer_1" xmlns="http://www.w3.org/2000/svg" xmlns:xlink="http://www.w3.org/1999/xlink" x="0px" y="0px"
	 viewBox="0 0 300 300" style="enable-background:new 0 0 300 300;" xml:space="preserve">
<style type="text/css">
	.st0{fill-rule:evenodd;clip-rule:evenodd;fill:#2C2540;}
	.st1{fill:#2C2540;}
	.st2{clip-path:url(#SVGID_00000052065618455075512580000013703433194278667434_);}
	.st3{fill-rule:evenodd;clip-rule:evenodd;fill:#C9401E;}
	.st4{fill-rule:evenodd;clip-rule:evenodd;fill:#FFFFFF;}
	.st5{fill-rule:evenodd;clip-rule:evenodd;fill:#E17C7A;}
</style>
<g transform="matrix(1,0,0,1,395.725,182.96)">
	<g transform="matrix(1,0,0,1,2.22761,0)">
		<path class="st0" d="M-296-46c-8.1-12.5-13.9-23-34-23.6c-27-0.7-48.9,34-48.9,34s2.4-57.3,51.3-55C-302.4-89.4-295.2-69.9-296-46
			z"/>
	</g>
	<g transform="matrix(-1,0,0,1,231.535,0)">
		<path class="st0" d="M435.4-46c-8.1-12.5-13.9-23-34-23.6c-27-0.7-48.9,34-48.9,34s2.4-57.3,51.3-55
			C429.1-89.4,436.2-69.9,435.4-46z"/>
	</g>
	<g transform="matrix(0.620352,0,0,0.620352,38.7438,13.0356)">
		<path class="st0" d="M-635.9-242.3c0,0,9.8-24.3,34.1-28.9c26.1-5,45.6,17.8,45.6,17.8s-5.2-42.3-43.1-37.7
			C-639.2-286.3-636.1-241.6-635.9-242.3z"/>
	</g>
	<g transform="matrix(-0.620352,0,0,0.620352,196.291,13.0356)">
		<path class="st0" d="M537.5-242.3c0,0,9.8-24.3,34.1-28.9c26.1-5,45.6,17.8,45.6,17.8s-5.2-42.3-43.1-37.7
			C534.3-286.3,537.3-241.6,537.5-242.3z"/>
	</g>
	<g transform="matrix(1,0,0,1,-0.992592,-5.63609)">
		<path class="st1" d="M-268.8,8.5c-0.3,0-0.5,0-0.8-0.1c-1.4-0.4-2.1-1.9-1.7-3.3c0.8-2.3,7.7-22.4,20.4-22.5c0,0,0,0,0.1,0
			c12.7,0,19.5,20.2,20.3,22.5c0.4,1.4-0.3,2.8-1.7,3.3c-1.4,0.4-2.8-0.3-3.3-1.7c-1.7-5.3-7.8-18.9-15.3-18.9c0,0,0,0,0,0
			c-7.6,0-13.8,13.7-15.5,18.9C-266.7,7.8-267.7,8.5-268.8,8.5z"/>
	</g>
	<g transform="matrix(1,0,0,-1,-498.672,349.999)">
		<g>
			<defs>
				<path id="SVGID_1_" d="M204.9,328.8c-16.1-0.6-19.1-80.1,36.2-78.1c63.4,2.3,63.7,73.2,54.6,94.8c-5.7,13.5-19.9-14.7-48-19.2
					C226.8,322.9,208.3,328.9,204.9,328.8z"/>
			</defs>
			<use xlink:href="#SVGID_1_"  style="overflow:visible;fill-rule:evenodd;clip-rule:evenodd;fill:#973319;"/>
			<clipPath id="SVGID_00000147195843883496660400000011522908753101775523_">
				<use xlink:href="#SVGID_1_"  style="overflow:visible;"/>
			</clipPath>
			<g style="clip-path:url(#SVGID_00000147195843883496660400000011522908753101775523_);">
				<g transform="matrix(1,0,0,-1,105.997,565.324)">
					<g>
						<path class="st3" d="M93.9,314.6c0,0,4.4-45.7,38-45.9c33.6-0.2,49.7,23.6,47.2,45.9C179.2,314.6,136.3,351.2,93.9,314.6z"/>
						<path class="st1" d="M135,333.5c-12.8,0-27.8-4-42.7-16.9c-0.6-0.6-1-1.4-0.9-2.2c0-0.5,1.2-12,6.6-23.7
							c7.4-16,19.1-24.5,33.9-24.5c0.1,0,0.3,0,0.4,0c20.4,0,32.3,8.4,38.7,15.5c8.1,9,12,21.1,10.7,33.3c-0.1,0.7-0.4,1.3-0.9,1.7
							c-0.5,0.4-11.3,9.6-27.7,14.3C147.9,332.4,141.7,333.5,135,333.5z M96.7,313.6c16.6,13.9,35.1,18,55,12.3
							c12.9-3.7,22.2-10.5,24.9-12.6c0.8-10.4-2.6-20.6-9.5-28.3c-5.7-6.3-16.5-13.8-35.3-13.7C104.1,271.5,97.7,306.3,96.7,313.6z"
							/>
					</g>
				</g>
				<g transform="matrix(1,0,0,-1,105.997,565.324)">
					<g>
						<path class="st4" d="M98.9,226.3c0,0-1.6,25.6,41.1,24.2c42.7-1.4,44.4-30.7,44.4-30.7L98.9,226.3z"/>
						<path class="st1" d="M136.8,253.2c-15.4,0-26.7-3.6-33.7-10.7c-7.2-7.4-6.8-15.9-6.8-16.3c0.1-1.3,1.1-2.3,2.4-2.4l85.5-6.5
							c0.8-0.1,1.5,0.2,2,0.7c0.5,0.5,0.8,1.3,0.8,2c0,0.3-2.3,31.7-46.9,33.2C139,253.2,137.9,253.2,136.8,253.2z M101.7,228.7
							c0.4,2.4,1.6,6.4,5.2,10.2c6.3,6.4,17.7,9.5,33.1,9c32.1-1,39.6-18.2,41.4-25.3L101.7,228.7z"/>
					</g>
				</g>
			</g>
		</g>
		<path class="st1" d="M239.1,248.1c-20.5,0-31.7,10.9-37.6,20.3c-11.2,17.9-11.7,44.1-5.1,56.5c2.8,5.3,6.1,6.5,8.5,6.5
			c1.1,0.1,2.8-0.3,5.5-0.8c7.5-1.5,21.5-4.2,36.9-1.7c13.2,2.1,23.5,9.9,30.9,15.6c6.2,4.7,10.7,8.2,14.9,7c2.1-0.6,3.8-2.3,5-5
			c6.4-15.2,7.5-48.7-7.3-71.9c-10.7-16.8-27.4-25.7-49.6-26.5C240.5,248.1,239.8,248.1,239.1,248.1z M204.9,328.8l0.1-2.6
			c-1.8-0.1-3.3-2.4-4.1-3.8c-5.2-9.8-5.9-34.1,4.9-51.3c7.8-12.4,19.6-18.4,35.1-17.8c20.4,0.8,35.7,8.9,45.4,24.1
			c13.6,21.4,12.7,53.3,6.9,67.1c-0.3,0.7-0.9,1.8-1.5,2c-1.8,0.5-6.2-2.9-10.4-6.2c-7.9-6-18.7-14.3-33.3-16.6
			c-16.3-2.6-30.9,0.2-38.7,1.8c-1.8,0.4-3.9,0.7-4.4,0.7L204.9,328.8z M204.9,328.8L204.9,328.8L204.9,328.8z"/>
	</g>
	<g transform="matrix(0.804656,0,0,0.839058,21.4379,16.4403)">
		<path class="st5" d="M-492.8,56.5c-0.9-13.8,2.3-35.6,34-38c34.9-2.7,46,47.4,22,60.8C-460,92.2-491,82.5-492.8,56.5z"/>
	</g>
	<g transform="matrix(0.804656,0,0,0.839058,76.7588,16.4403)">
		<path class="st5" d="M-306.8,56.5c-0.9-13.8,2.3-35.6,34-38c34.9-2.7,46,47.4,22,60.8C-274,92.2-305.1,82.5-306.8,56.5z"/>
	</g>
</g>
</svg>
