<?xml version="1.0" encoding="utf-8"?>
<!-- Generator: Adobe Illustrator 26.3.1, SVG Export Plug-In . SVG Version: 6.00 Build 0)  -->
<svg version="1.1" id="Layer_1" xmlns="http://www.w3.org/2000/svg" xmlns:xlink="http://www.w3.org/1999/xlink" x="0px" y="0px"
	 viewBox="0 0 300 300" style="enable-background:new 0 0 300 300;" xml:space="preserve">
<style type="text/css">
	.st0{fill-rule:evenodd;clip-rule:evenodd;fill:#2C2540;}
	.st1{fill:#2C2540;}
	.st2{clip-path:url(#SVGID_00000056405189958253425260000005023629103943892874_);}
	.st3{fill-rule:evenodd;clip-rule:evenodd;fill:#C9401E;}
	.st4{fill-rule:evenodd;clip-rule:evenodd;fill:#FFFFFF;}
	.st5{fill-rule:evenodd;clip-rule:evenodd;fill:#E17C7A;}
</style>
<g transform="matrix(1,0,0,1,595.922,180.371)">
	<g transform="matrix(0.364894,0,0,0.364894,62.9759,30.8249)">
		<path class="st0" d="M-1623.5-332.6c0.6-14.5,6.5-37.8,22.7-38.4c17-0.6,21.2,22,22.7,40.6c1.6,19.6-1.5,43.5-19.5,43.6
			C-1617.3-286.6-1624.3-313.5-1623.5-332.6z"/>
	</g>
	<g transform="matrix(-0.364894,0,0,0.364894,173.418,30.8249)">
		<path class="st0" d="M1449.1-332.6c0.6-14.5,6.5-37.8,22.7-38.4c17-0.6,21.2,22,22.7,40.6c1.6,19.6-1.5,43.5-19.5,43.6
			C1455.4-286.6,1448.3-313.5,1449.1-332.6z"/>
	</g>
	<g transform="matrix(1,0,0,1,2.22761,0)">
		<path class="st1" d="M-577.3-40c-1.3,0-2.4-1-2.6-2.3c-0.2-1.4-3.6-34.8,13.4-55.4c7.5-9.1,17.9-14.2,30.8-15.2
			c9.2-0.7,17.6,1.9,24.3,7.6c11,9.4,17.6,27,19.6,52.1c0.1,1.4-1,2.7-2.4,2.8c-1.4,0.1-2.7-1-2.8-2.4c-1.8-23.7-7.8-40.1-17.8-48.6
			c-5.7-4.9-12.6-7-20.5-6.4c-11.4,0.9-20.6,5.4-27.2,13.3c-15.6,18.8-12.3,51.2-12.3,51.5c0.2,1.4-0.9,2.7-2.3,2.9
			C-577.1-40-577.2-40-577.3-40z"/>
	</g>
	<g transform="matrix(-1,0,0,1,231.636,0)">
		<path class="st1" d="M550.7-40c0.1,0,0.2,0,0.3,0c1.4-0.2,2.5-1.4,2.3-2.9c0-0.3-3.4-32.7,12.3-51.5c6.6-8,15.7-12.4,27.2-13.3
			c7.9-0.6,14.8,1.5,20.5,6.4c10,8.5,15.9,24.9,17.8,48.6c0.1,1.4,1.4,2.5,2.8,2.4c1.4-0.1,2.5-1.4,2.4-2.8
			c-1.9-25.1-8.5-42.7-19.6-52.1c-6.7-5.7-15.1-8.4-24.3-7.6c-12.9,1-23.2,6.1-30.8,15.2c-17,20.6-13.6,54-13.4,55.4
			C548.3-41,549.4-40,550.7-40z"/>
	</g>
	<g transform="matrix(0.972878,-0.23132,0.23132,0.972878,-488.056,134.408)">
		<path class="st1" d="M-7.6-132.6c-0.7-0.2-1.3-0.3-2-0.5c-7.9-2.4-14.3-7.3-16.3-12.7c-0.5-1.3,0.2-2.8,1.5-3.3
			c1.3-0.5,2.8,0.2,3.3,1.5c1.2,3.2,5.6,7.3,12.9,9.5c5.7,1.7,17.2,3.3,29.6-5.8c1.2-0.8,2.8-0.6,3.6,0.6c0.8,1.2,0.6,2.8-0.6,3.6
			C14.8-132.6,3.2-130.1-7.6-132.6z"/>
	</g>
	<g transform="matrix(-0.9223,-0.386475,-0.386475,0.9223,708.189,229.302)">
		<path class="st1" d="M1073.6,207.3c5.8,2.4,15,3.7,28.1-2c1.3-0.6,1.9-2.1,1.4-3.4c-0.6-1.3-2.1-1.9-3.4-1.4
			c-9.9,4.3-18.6,4.8-25.2,1.4c-5.3-2.7-9.2-7.8-10.7-13.8c-0.3-1.4-1.7-2.3-3.1-1.9c-1.4,0.3-2.3,1.7-1.9,3.1
			c1.8,7.5,6.8,13.9,13.4,17.3C1072.5,206.8,1073,207.1,1073.6,207.3z"/>
	</g>
	<g transform="matrix(0.620352,0,0,0.620352,38.7438,13.0356)">
		<path class="st0" d="M-993.5-247.3c0,0,49.6-24.4,65-24.6c35.2-0.7,59.1,13.2,59.1,13.2s-21.4-35-56.6-33.1
			C-966.1-289.7-993.7-246.5-993.5-247.3z"/>
	</g>
	<g transform="matrix(-0.620352,0,0,-0.620352,196.243,62.7847)">
		<path class="st0" d="M847.4,372.1c0,0,83.9-31.9,99.2-34c16.8-2.3,23.3,18.3,23.3,18.3s4.6-41.3-20.8-38.2
			C922.5,321.3,847.1,372.8,847.4,372.1z"/>
	</g>
	<g transform="matrix(1,0,0,1,-0.992592,-5.63609)">
		<path class="st1" d="M-431.5,1.5c-1.1,0-2.1-0.7-2.5-1.8c-1.7-5.3-7.8-18.9-15.3-18.9c0,0,0,0,0,0c-7.6,0-13.7,13.7-15.5,18.9
			c-0.4,1.4-1.9,2.1-3.3,1.6c-1.4-0.4-2.1-1.9-1.7-3.3c0.8-2.3,7.7-22.4,20.4-22.5c0,0,0,0,0.1,0c12.6,0,19.5,20.2,20.3,22.5
			c0.4,1.4-0.3,2.8-1.7,3.3C-430.9,1.4-431.2,1.5-431.5,1.5z"/>
	</g>
	<g transform="matrix(1,0,0,1,-620.195,-208.96)">
		<g>
			<defs>
				<path id="SVGID_1_" d="M125.6,265.9c1.5-24.2,11.2-59.6,24.4-52.4c13.1,7.1,21.7,32.6,37.8,22.6c16.1-9.9,19.5-9.3,21.1,6.2
					c1.7,15.5,0.1,57.4-12.8,66.7c-12.8,9.3-18.3,3.7-26.3-7.9c-8-11.6-26.2,8.8-35.2,1C125.8,294.2,124.3,286.1,125.6,265.9z"/>
			</defs>
			<use xlink:href="#SVGID_1_"  style="overflow:visible;fill-rule:evenodd;clip-rule:evenodd;fill:#973319;"/>
			<clipPath id="SVGID_00000122686977577542437300000007523803779908052876_">
				<use xlink:href="#SVGID_1_"  style="overflow:visible;"/>
			</clipPath>
			<g style="clip-path:url(#SVGID_00000122686977577542437300000007523803779908052876_);">
				<g>
					<path class="st3" d="M116,296.9c0,0,30.4-40.7,58.3-33.8c27.9,6.9,35.2,62.6,35.2,62.6S126.5,338.5,116,296.9z"/>
					<path class="st1" d="M181.7,330.2c-25.9,0-61.3-5.2-68.2-32.7c-0.2-0.8,0-1.6,0.4-2.2c1.3-1.7,31.8-42,61-34.8
						c29.3,7.2,36.8,62.5,37.1,64.8c0.2,1.4-0.8,2.7-2.2,2.9C208.5,328.5,196.7,330.2,181.7,330.2z M118.8,297.5
						c10,33.5,73.9,27.7,87.6,26c-1.8-10.8-10.2-52.3-32.8-57.9C150.1,259.8,123.6,291.4,118.8,297.5z"/>
				</g>
				<g>
					<path class="st4" d="M146.1,206.4c0,0-2.6,35.1,28.2,40.5c30.8,5.4,39.7-23.3,39.7-23.3L146.1,206.4z"/>
					<path class="st1" d="M181.8,250.1c-2.5,0-5.1-0.2-8-0.7c-32.8-5.8-30.4-42.9-30.3-43.2c0.1-0.8,0.4-1.5,1.1-1.9
						c0.6-0.4,1.4-0.6,2.2-0.4l67.9,17.2c0.7,0.2,1.3,0.6,1.6,1.2c0.3,0.6,0.4,1.4,0.2,2C216.4,224.6,208.2,250.1,181.8,250.1z
						 M148.6,209.7c0.2,8.3,2.9,30.5,26.1,34.6c23.2,4.1,32.9-12.4,35.8-18.9L148.6,209.7z M148.7,206.6L148.7,206.6L148.7,206.6z"
						/>
				</g>
			</g>
		</g>
		<path class="st1" d="M185,316.3c-0.7,0-1.4-0.1-2.1-0.2c-6.1-1.1-10.5-6.7-15.2-13.5c-2.8-4-7-2.9-15.4,0.5
			c-6.5,2.6-13.9,5.6-19.3,0.9c-10.1-8.9-11.2-18.6-10-38.3l0,0c1.2-18.9,7.8-48.4,18.9-54.6c3-1.7,6.2-1.7,9.3,0
			c5,2.7,9.3,7.7,13.3,12.5c8.2,9.6,13.7,15.3,21.8,10.2c9.4-5.8,14.9-8.4,19.2-6.3c3.8,1.9,5.1,6.9,5.9,14.4
			c1.3,12.1,1.2,58.3-13.8,69.1C192.8,314.6,188.7,316.3,185,316.3z M163,294.9c3.4,0,6.6,1.2,9,4.8c4.7,6.8,8,10.7,11.8,11.3
			c2.8,0.5,6.4-0.8,10.8-4.1c11.4-8.2,13.4-48.8,11.7-64.3c-0.2-2.3-1-9.3-3-10.3c-2.4-1.2-10.7,3.9-14.2,6.1
			c-12.3,7.6-20.9-2.4-28.5-11.3c-3.8-4.4-7.7-9-11.9-11.3c-1.5-0.8-2.8-0.8-4.3,0c-8.2,4.5-15,29.7-16.3,50.3l0,0
			c-1.3,20.4,0.4,27.1,8.3,34c3,2.6,8.3,0.5,14-1.8C154.3,296.7,158.8,294.9,163,294.9z"/>
	</g>
	<g transform="matrix(0.652494,0,0,0.68039,29.9742,24.2848)">
		<path class="st5" d="M-942.2,9.1c-0.9-13.8,2.3-35.6,34-38c34.9-2.7,46,47.3,22,60.7C-909.4,44.8-940.5,35-942.2,9.1z"/>
	</g>
	<g transform="matrix(0.652494,0,0,0.68039,92.899,24.2848)">
		<path class="st5" d="M-681.6,9.1c-0.9-13.8,2.3-35.6,34-38c34.9-2.7,46,47.3,22,60.7C-648.8,44.8-679.8,35-681.6,9.1z"/>
	</g>
</g>
</svg>
